<svg version="1.1" id="Layer_1" xmlns="http://www.w3.org/2000/svg" xmlns:xlink="http://www.w3.org/1999/xlink" x="0px" y="0px"
	 width="100%" viewBox="0 0 959 172" enable-background="new 0 0 959 172" xml:space="preserve">
<path fill="#FEFEFE" opacity="1.000000" stroke="none" 
	d="
M484.000000,173.000000 
	C323.061768,173.000000 162.123566,173.000000 1.092672,173.000000 
	C1.092672,115.750580 1.092672,58.500965 1.092672,1.000000 
	C157.689224,1.000000 314.378571,1.000000 471.548157,1.463386 
	C472.371002,6.292357 472.713593,10.657944 473.088867,15.352633 
	C473.055084,16.115587 472.988647,16.549438 472.636841,17.216774 
	C471.912415,18.679934 471.062134,19.924847 471.107056,21.136593 
	C471.279968,25.802664 468.870087,27.551424 464.625641,28.849344 
	C459.767487,30.334942 455.243958,32.970127 450.680084,35.310654 
	C449.880463,35.720734 449.598175,37.139656 449.036377,38.061901 
	C448.995789,38.031128 449.078888,38.081009 448.692261,38.039543 
	C442.548492,38.962708 435.225067,46.121078 433.994385,51.996082 
	C434.000000,52.000000 433.990265,51.990437 433.750305,52.093704 
	C433.371307,52.503372 433.232239,52.809769 433.089172,53.056938 
	C433.085144,52.997711 433.127655,53.108700 432.767212,53.092255 
	C427.079285,57.498528 423.983887,63.009098 424.116394,70.094597 
	C424.118927,70.097572 424.134613,70.110306 423.763000,70.121620 
	C422.272278,73.076736 420.711151,75.937653 420.139923,78.984184 
	C419.326477,83.322403 417.667664,84.784157 413.266693,84.323410 
	C411.570892,84.145866 409.786804,84.811440 407.855713,85.029655 
	C407.668518,84.966438 407.302704,85.116035 407.272034,84.641144 
	C407.243561,70.171738 407.278015,56.177109 407.229004,42.182770 
	C407.213623,37.787449 406.755096,33.320396 412.277893,31.530497 
	C412.650848,31.409626 412.631012,30.076857 412.838684,29.096054 
	C401.386383,29.096054 390.209534,29.096054 378.607239,29.096054 
	C379.011841,30.297966 379.085663,31.525391 379.527557,31.676504 
	C384.849121,33.496296 384.186157,37.876560 384.181641,42.041500 
	C384.158264,63.533237 384.168060,85.025009 384.141479,106.516747 
	C384.139984,107.722946 383.917297,108.928864 383.727692,110.839165 
	C362.281891,86.934479 341.372406,63.667210 320.527161,40.342541 
	C317.903931,37.407295 316.733765,34.320332 321.208496,31.703413 
	C321.749084,31.387262 321.703857,30.069445 321.963654,29.089413 
	C308.739105,29.089413 295.875641,29.089413 283.062256,29.089413 
	C282.962769,29.784037 282.825531,30.128826 282.890778,30.429724 
	C282.989746,30.886105 283.132477,31.612135 283.423676,31.706182 
	C288.486694,33.341270 288.125214,37.454441 288.120819,41.533993 
	C288.085938,74.021667 288.078888,106.509422 288.123505,138.997070 
	C288.129364,143.250092 288.525879,147.491394 283.338379,149.336075 
	C282.946564,149.475388 282.968689,150.778793 282.749634,151.759460 
	C294.185822,151.759460 305.321381,151.759460 316.759064,151.759460 
	C316.509399,150.666382 316.520508,149.596054 316.201721,149.486588 
	C311.130829,147.745636 311.089844,143.681091 311.104706,139.329102 
	C311.180969,117.004692 311.133148,94.679863 311.147461,72.355194 
	C311.148254,71.151764 311.319183,69.948456 311.474091,67.916344 
	C333.818512,92.667625 355.564362,116.746635 377.295380,140.839035 
	C380.094757,143.942566 381.443756,146.996765 376.730988,149.705475 
	C376.387177,149.903091 376.487427,150.873352 376.318756,151.843628 
	C388.627777,151.843628 400.627197,151.843628 414.107361,151.843628 
	C412.387634,150.161850 411.438599,149.497482 410.844513,148.598526 
	C409.561340,146.656860 407.471924,144.609512 407.441864,142.579758 
	C407.212372,127.095299 407.399231,111.604652 407.885803,96.131943 
	C420.109680,96.038582 419.904205,96.099617 423.151093,107.029648 
	C429.025146,126.803596 441.227753,140.930313 461.127869,148.376175 
	C463.603546,149.175629 465.829895,149.739731 468.355042,150.499054 
	C469.122742,150.732025 469.591614,150.769791 470.286926,151.000946 
	C471.274628,151.194778 472.035889,151.195236 473.166870,151.419373 
	C474.391754,151.686325 475.246918,151.729568 476.400726,152.001541 
	C481.612457,151.968948 483.261810,154.368195 483.124512,159.147064 
	C482.992249,163.752533 483.675201,168.381409 484.000000,173.000000 
M182.688477,113.187927 
	C190.237274,95.733063 197.786087,78.278198 205.652252,60.089478 
	C206.691971,62.316696 207.421539,63.768055 208.057693,65.259270 
	C216.081299,84.067497 224.199127,102.836731 232.043137,121.719666 
	C234.583954,127.836182 236.592590,134.197418 238.461945,140.559174 
	C239.390091,143.717865 239.751953,147.167419 236.269196,149.539871 
	C235.851059,149.824707 236.052063,151.018417 235.956467,151.877228 
	C250.105865,151.877228 264.000214,151.877228 278.450562,151.877228 
	C277.834991,150.642151 277.624084,149.373383 277.028503,149.155365 
	C271.361359,147.080765 269.362030,142.005600 267.137756,137.197296 
	C252.971176,106.572746 238.921051,75.894203 224.699173,45.295448 
	C222.443008,40.441212 220.783234,36.058144 225.941971,32.010105 
	C226.576767,31.511967 226.631500,30.274590 227.038010,29.150272 
	C213.234268,29.150272 199.780823,29.150272 185.798386,29.150272 
	C186.597885,30.868191 186.870224,32.316727 187.733734,33.159637 
	C191.513901,36.849682 190.866928,40.777260 188.950958,45.047577 
	C174.662933,76.892639 160.515518,108.801376 146.047150,140.564026 
	C144.577820,143.789658 141.259949,146.165375 138.843109,148.972672 
	C138.215240,149.701965 137.750565,150.571777 136.868881,151.887451 
	C150.308044,151.887451 162.887787,151.887451 176.647461,151.887451 
	C170.783157,145.516296 172.649384,139.091415 174.813904,132.858902 
	C177.046890,126.429268 179.794189,120.178261 182.688477,113.187927 
z"/>
<path fill="#FEFEFD" opacity="1.000000" stroke="none" 
	d="
M485.000000,1.000000 
	C643.271851,1.000000 801.543640,1.000000 959.907715,1.000000 
	C959.907715,58.249424 959.907715,115.499046 959.907715,173.000000 
	C804.977417,173.000000 649.954773,173.000000 494.483978,172.582825 
	C494.949249,166.432617 496.076996,160.722382 496.690582,154.957443 
	C497.025055,151.814941 498.363281,150.530334 501.299194,149.563278 
	C522.173157,142.687607 535.810059,128.574829 542.362000,107.631721 
	C543.584778,103.723190 543.310913,98.093369 545.889709,96.195183 
	C548.787109,94.062485 554.136047,95.260330 558.433960,95.475525 
	C558.471863,110.595764 558.436157,125.250198 558.554321,139.903397 
	C558.586853,143.936310 558.425842,147.588455 553.862976,149.300293 
	C553.385864,149.479294 553.368652,150.884155 553.067505,151.976196 
	C565.268005,151.976196 577.046265,151.976196 589.233459,151.976196 
	C588.839966,150.816803 588.757324,149.398834 588.232239,149.209763 
	C583.486755,147.501266 583.728943,143.640869 583.767883,139.723740 
	C583.840759,132.397232 583.793518,125.069527 583.795044,117.742325 
	C583.796143,112.500999 583.795227,107.259674 583.795227,101.889969 
	C593.604187,101.889969 602.751892,101.801453 611.894104,101.987183 
	C613.236511,102.014458 615.072571,103.005684 615.800964,104.123749 
	C623.970886,116.664391 631.984924,129.306915 640.000183,141.947876 
	C641.861450,144.883224 643.064941,147.742081 638.295410,149.290665 
	C637.821045,149.444717 637.749329,150.838959 637.439697,151.818848 
	C651.545349,151.818848 665.233276,151.818848 679.830688,151.818848 
	C661.463623,138.486053 654.842285,117.599297 641.076172,101.134979 
	C643.201050,100.608383 644.301331,100.327721 645.405457,100.063316 
	C663.669250,95.689438 672.781738,84.166985 672.810791,65.406822 
	C672.837830,48.013741 664.318115,35.175163 649.328247,31.214132 
	C643.448669,29.660484 637.184631,29.010263 631.084290,28.940182 
	C606.108521,28.653252 581.128235,28.744781 556.149658,28.719406 
	C555.190002,28.718431 554.230164,28.947975 552.198669,29.206482 
	C553.455261,30.611956 554.338440,31.349554 554.901855,32.280621 
	C556.178955,34.391148 558.284973,36.579418 558.323853,38.766830 
	C558.596069,54.079372 558.427979,69.399734 558.195557,84.741638 
	C557.990417,84.765678 557.825378,85.144669 557.372437,85.175568 
	C554.446533,85.178040 551.953186,84.937500 549.505371,85.172127 
	C546.054260,85.502922 544.443054,84.294891 543.964539,80.728683 
	C542.605713,70.601288 538.455139,61.601414 532.155762,53.324352 
	C531.923950,52.823566 531.670532,52.670799 531.267456,52.308838 
	C526.528503,47.912479 521.863342,43.851410 517.070068,39.518253 
	C516.377319,39.078552 515.812683,38.910938 515.108643,38.470493 
	C514.387817,38.047489 513.806458,37.897316 513.163574,37.394753 
	C507.001801,32.022400 499.360657,31.504879 492.100769,29.919985 
	C489.430389,29.337011 486.165344,29.750183 485.981903,25.746275 
	C485.604065,17.499834 485.321655,9.249017 485.000000,1.000000 
M718.090942,143.347626 
	C719.511719,137.729523 720.343567,131.876648 722.471008,126.540260 
	C727.513306,113.892166 733.163086,101.486023 738.581055,88.988037 
	C742.658630,79.581924 746.757324,70.184998 751.045410,60.327084 
	C751.632996,61.218315 751.921021,61.539066 752.080994,61.914375 
	C761.397522,83.766296 770.946838,105.523979 779.877319,127.532753 
	C782.970154,135.154938 787.781616,143.221329 780.711670,151.864929 
	C795.399109,151.864929 809.449280,151.864929 823.529785,151.864929 
	C823.529785,151.070679 823.657532,150.533508 823.493530,150.109146 
	C823.333435,149.695175 822.937988,149.209030 822.538574,149.075455 
	C817.202576,147.290802 815.127869,142.638168 813.036438,138.118881 
	C798.657715,107.048531 784.380737,75.931084 769.970459,44.875462 
	C767.870483,40.349903 766.322815,36.219814 771.064575,32.354603 
	C771.804077,31.751823 771.924805,30.389860 772.446716,29.092987 
	C758.646912,29.092987 745.320618,29.092987 731.608215,29.092987 
	C732.006836,30.464651 731.986389,31.695997 732.590393,32.268337 
	C737.637146,37.050220 735.852966,41.968769 733.461365,47.273800 
	C719.666321,77.872993 706.010010,108.534721 692.330383,139.185852 
	C690.481812,143.327713 688.718079,147.446518 683.942566,149.173203 
	C683.367676,149.381088 683.179138,150.657684 682.602356,151.883362 
	C695.711670,151.883362 708.268494,151.883362 721.200500,151.883362 
	C720.095947,149.146286 719.095337,146.666748 718.090942,143.347626 
z"/>
<path fill="#180101" opacity="1.000000" stroke="none" 
	d="
M491.000000,173.000000 
	C489.933441,173.000000 488.866852,173.000000 487.169434,172.646851 
	C486.322021,167.224335 486.105438,162.154968 485.926514,156.772812 
	C485.913300,156.256210 485.862396,156.052414 485.766479,155.484619 
	C485.620819,153.421799 485.520142,151.722977 485.599121,149.795807 
	C485.584106,148.695389 485.389404,147.823334 485.147064,146.633667 
	C485.112274,145.888519 485.125153,145.460953 485.376251,144.725403 
	C485.323700,141.560501 485.032898,138.703629 484.645508,135.543701 
	C484.538818,134.818314 484.528748,134.395981 484.700592,133.617416 
	C484.503693,128.458466 484.124908,123.655739 483.634918,118.507675 
	C483.498688,117.439690 483.473724,116.717033 483.641968,115.663177 
	C483.567230,112.553719 483.299255,109.775444 482.985901,106.566383 
	C482.249451,93.090881 481.558411,80.046173 480.914490,66.590500 
	C480.460266,63.207054 479.958893,60.234573 479.457550,57.262096 
	C479.004272,57.200943 478.550964,57.139790 478.097656,57.078640 
	C476.760712,62.925739 475.601105,68.804588 476.065491,75.414780 
	C475.435577,86.277634 474.870789,96.711525 473.969025,107.204811 
	C471.069336,110.232697 469.473938,107.643105 468.502075,105.945930 
	C466.356232,102.198555 464.701660,98.169876 462.896484,93.852081 
	C462.295868,90.963860 461.645447,88.479515 461.335327,85.997665 
	C462.129272,85.996964 462.582916,85.993782 463.280029,86.189468 
	C464.046814,87.523430 464.570129,88.658531 465.070496,90.118935 
	C465.383118,90.954620 465.718750,91.465004 466.024475,91.980278 
	C465.994598,91.985176 466.037720,91.942589 466.078308,92.163406 
	C466.245361,92.672462 466.452301,92.880653 466.867065,93.194489 
	C466.994354,93.380180 467.079285,93.822334 467.050812,94.197594 
	C467.714935,95.363541 468.407532,96.154236 469.435852,96.808769 
	C470.007935,95.138046 470.244293,93.603493 470.611694,91.615982 
	C471.382385,82.073799 472.021942,72.984573 472.666870,63.708832 
	C472.672211,63.522320 472.510529,63.185986 472.628357,62.789085 
	C472.741425,61.568146 472.736664,60.744099 472.820679,59.475674 
	C474.272980,39.687531 475.636505,20.343765 477.000000,1.000000 
	C478.066559,1.000000 479.133148,1.000000 480.585815,1.466537 
	C481.691956,12.477403 482.462158,23.018606 483.118439,33.566898 
	C483.835083,45.084736 484.479340,56.607372 485.094910,68.131134 
	C485.835510,81.995743 486.512665,95.863747 487.117554,110.214462 
	C487.656738,120.466759 488.295715,130.234863 488.998291,140.261765 
	C489.120453,140.688278 489.179047,140.855988 489.171082,141.479401 
	C489.039917,144.667587 488.766693,147.418365 489.004059,150.124329 
	C489.112793,151.363419 490.226013,152.514374 491.042358,153.992188 
	C491.788605,154.524490 492.376099,154.769897 492.967346,155.420288 
	C493.032837,156.634277 493.094574,157.443283 493.174133,158.602921 
	C493.085510,159.645767 492.979065,160.337967 492.592468,161.275406 
	C491.915894,164.743378 491.519501,167.966110 491.142151,171.492310 
	C491.107452,172.197174 491.053741,172.598587 491.000000,173.000000 
z"/>
<path fill="#D6702B" opacity="1.000000" stroke="none" 
	d="
M487.217285,109.730278 
	C486.512665,95.863747 485.835510,81.995743 485.094910,68.131134 
	C484.479340,56.607372 483.835083,45.084736 483.118439,33.566898 
	C482.462158,23.018606 481.691956,12.477403 480.985962,1.466537 
	C482.066681,1.000000 483.133331,1.000000 484.600006,1.000000 
	C485.321655,9.249017 485.604065,17.499834 485.981903,25.746275 
	C486.165344,29.750183 489.430389,29.337011 492.100769,29.919985 
	C499.360657,31.504879 507.001801,32.022400 513.099121,37.469299 
	C513.096191,37.896236 512.968506,38.046360 512.601807,38.033562 
	C511.501160,37.999508 510.767242,37.978249 509.810852,37.690834 
	C502.369446,35.311131 495.150574,33.197575 487.567993,31.158836 
	C486.848206,33.449139 486.492126,35.664623 486.088562,38.227295 
	C486.325867,39.398285 486.610626,40.222092 486.920105,41.485100 
	C487.002136,44.265827 487.059509,46.607353 487.087006,49.395607 
	C487.718262,59.219494 488.379395,68.596657 489.017334,78.423370 
	C489.042542,81.564957 489.090942,84.256989 489.130066,87.333641 
	C489.413910,89.472939 489.707031,91.227623 489.988464,93.451035 
	C490.650055,99.453964 488.567261,105.344940 491.316589,110.610367 
	C491.852356,110.626114 492.388123,110.641869 492.923889,110.657616 
	C493.946045,104.762993 494.968201,98.868370 496.000366,92.539597 
	C496.319885,89.060951 496.629425,86.016441 496.957092,82.567932 
	C497.670685,79.149696 498.366119,76.135460 499.387360,73.146332 
	C501.122650,74.151253 502.532135,75.131065 503.951599,76.468834 
	C504.684174,78.535072 505.406769,80.243355 505.824158,81.972229 
	C505.315308,82.004654 505.111694,82.016479 504.536957,82.008148 
	C501.319733,80.305099 500.377045,81.985352 500.059174,84.423058 
	C498.633545,95.354935 497.328583,106.302902 495.846741,117.226974 
	C494.995148,123.504936 493.888916,129.748352 492.696777,136.155243 
	C492.596039,136.861969 492.695831,137.420792 492.830200,138.268555 
	C492.603638,139.044373 492.342529,139.531235 491.848999,140.130432 
	C490.823608,140.503082 490.030609,140.763397 489.237610,141.023682 
	C489.179047,140.855988 489.120453,140.688278 489.083557,139.930267 
	C489.159882,138.886917 489.214508,138.433853 489.388245,137.878036 
	C489.653290,137.449173 489.554993,137.199722 489.146912,136.567383 
	C488.459991,127.315323 487.838654,118.522804 487.217285,109.730278 
z"/>
<path fill="#DB722D" opacity="1.000000" stroke="none" 
	d="
M492.872620,161.030167 
	C492.979065,160.337967 493.085510,159.645767 493.409943,158.315338 
	C493.733276,156.457275 493.838654,155.237442 494.035065,153.701599 
	C494.154022,152.732773 494.181885,152.079971 494.424103,151.179840 
	C494.697540,150.298187 494.756622,149.663864 494.899597,148.660522 
	C494.992676,147.536240 495.001801,146.780975 495.249146,145.742950 
	C495.622955,143.979935 495.758606,142.499710 495.978241,140.710709 
	C496.061157,139.975967 496.060059,139.549988 496.318420,138.868362 
	C496.680908,137.413986 496.783997,136.215271 496.969788,134.700851 
	C497.047302,133.950867 497.042145,133.516571 497.270966,132.814575 
	C497.615448,131.374573 497.725952,130.202255 497.940857,128.706192 
	C498.061829,127.930702 498.078430,127.478966 498.316010,126.758163 
	C498.632172,125.334312 498.727356,124.179512 498.925537,122.581009 
	C499.697479,111.855301 500.975922,101.697502 504.652100,91.088570 
	C508.059326,94.865105 510.734924,97.830719 513.227417,100.593391 
	C518.909851,97.817474 524.030884,95.315758 529.328613,92.837418 
	C529.505310,92.860786 529.826233,92.705994 530.297302,92.717651 
	C533.916565,92.713043 537.064819,92.696777 540.372498,92.744186 
	C540.531982,92.807869 540.853149,92.686234 541.321533,92.699921 
	C545.213745,92.728935 548.637634,92.744263 552.468628,92.861008 
	C554.578186,92.970261 556.280640,92.978104 558.198792,93.069733 
	C558.414490,93.153519 558.853821,93.299187 558.770142,93.566750 
	C558.769287,94.187225 558.852112,94.540138 558.810425,94.942551 
	C558.685913,94.992058 558.418457,95.009247 558.418457,95.009247 
	C554.136047,95.260330 548.787109,94.062485 545.889709,96.195183 
	C543.310913,98.093369 543.584778,103.723190 542.362000,107.631721 
	C535.810059,128.574829 522.173157,142.687607 501.299194,149.563278 
	C498.363281,150.530334 497.025055,151.814941 496.690582,154.957443 
	C496.076996,160.722382 494.949249,166.432617 494.017944,172.582825 
	C493.250000,173.000000 492.500000,173.000000 491.375000,173.000000 
	C491.053741,172.598587 491.107452,172.197174 491.388275,171.182770 
	C492.034454,167.389923 492.453522,164.210037 492.872620,161.030167 
M535.742859,115.941902 
	C537.154724,112.628220 538.566589,109.314537 540.326477,105.250450 
	C540.558167,102.795708 541.060425,100.322304 540.893005,97.895111 
	C540.822693,96.875938 539.448181,95.259720 538.473816,95.101357 
	C532.131287,94.070541 526.171326,95.646004 521.165466,99.494568 
	C517.082520,102.633606 513.380615,104.410400 508.707703,100.919525 
	C508.083099,100.452911 506.374176,100.346962 506.095581,100.736977 
	C505.531281,101.526978 505.342163,102.808083 505.483917,103.818558 
	C505.635803,104.900871 506.346222,105.904808 506.249817,105.690346 
	C504.628876,108.848953 502.810974,110.909653 502.563019,113.144524 
	C501.725250,120.696404 501.444336,128.310059 500.229767,136.090088 
	C499.113708,139.481094 497.997681,142.872101 496.881622,146.263123 
	C497.346893,146.777618 497.812195,147.292099 498.277496,147.806595 
	C501.194885,146.560532 504.112274,145.314453 507.764954,144.043823 
	C510.842926,142.357941 513.920898,140.672058 517.561584,138.734055 
	C518.378479,137.831726 519.195374,136.929413 520.695007,135.922958 
	C523.058838,133.464035 525.766785,131.246796 527.703979,128.488251 
	C530.453186,124.573257 532.634949,120.259743 535.742859,115.941902 
z"/>
<path fill="#C37D41" opacity="1.000000" stroke="none" 
	d="
M476.625000,1.000000 
	C475.636505,20.343765 474.272980,39.687531 472.588440,59.159409 
	C471.891815,55.859653 471.516235,52.431778 471.095093,48.580032 
	C471.055542,46.450397 471.061584,44.744633 471.324402,42.723595 
	C471.581177,39.094059 471.581177,35.779800 471.581177,32.331932 
	C469.615753,32.634361 468.012695,32.530472 466.753113,33.138302 
	C462.373535,35.251747 458.113007,37.611969 453.469788,39.935780 
	C451.028259,41.289967 448.924133,42.586712 446.495972,43.946533 
	C445.064880,45.280609 443.957886,46.551613 442.897980,47.893665 
	C442.945099,47.964718 442.821381,47.847366 442.485962,47.877495 
	C439.766968,50.587799 437.383392,53.267975 434.640411,55.970272 
	C433.804016,55.953754 433.326996,55.915115 432.764709,55.530289 
	C432.828827,54.492298 432.978241,53.800499 433.127655,53.108696 
	C433.127655,53.108700 433.085144,52.997711 433.343140,52.972897 
	C433.730835,52.628868 433.860565,52.309654 433.990265,51.990440 
	C433.990265,51.990437 434.000000,52.000000 434.305237,51.864861 
	C439.433258,47.180145 444.256073,42.630569 449.078888,38.081001 
	C449.078888,38.081009 448.995789,38.031128 449.396362,38.038982 
	C454.015625,36.107941 458.119843,33.848427 462.475616,32.293411 
	C473.273010,28.438765 473.319183,28.568096 472.922180,16.983288 
	C472.988647,16.549438 473.055084,16.115587 473.325958,15.018963 
	C473.686920,9.904126 473.843445,5.452063 474.000000,1.000000 
	C474.750000,1.000000 475.500000,1.000000 476.625000,1.000000 
z"/>
<path fill="#CF7A3E" opacity="1.000000" stroke="none" 
	d="
M485.888855,157.085617 
	C486.105438,162.154968 486.322021,167.224335 486.769287,172.646851 
	C486.250000,173.000000 485.500000,173.000000 484.375000,173.000000 
	C483.675201,168.381409 482.992249,163.752533 483.124512,159.147064 
	C483.261810,154.368195 481.612457,151.968948 476.577454,151.783234 
	C476.996002,151.197632 477.536499,151.059067 478.433899,150.926117 
	C479.507751,150.941422 480.224701,150.951096 481.305054,150.975739 
	C482.437622,150.315933 483.206726,149.641174 483.970337,148.540802 
	C483.957916,146.412048 483.950958,144.708893 484.136688,143.009811 
	C484.329376,143.013885 484.714813,143.014343 484.783844,143.351913 
	C484.947906,144.137451 485.042969,144.585434 485.138031,145.033401 
	C485.125153,145.460953 485.112274,145.888519 485.071655,147.020111 
	C485.169128,148.490814 485.294312,149.257492 485.419495,150.024170 
	C485.520142,151.722977 485.620819,153.421799 485.638000,155.621155 
	C485.665985,156.442993 485.777405,156.764313 485.888855,157.085617 
z"/>
<path fill="#FDE9C9" opacity="1.000000" stroke="none" 
	d="
M473.666687,1.000000 
	C473.843445,5.452063 473.686920,9.904126 473.293274,14.689859 
	C472.713593,10.657944 472.371002,6.292357 472.014221,1.463386 
	C472.444458,1.000000 472.888885,1.000000 473.666687,1.000000 
z"/>
<path fill="#030303" opacity="1.000000" stroke="none" 
	d="
M407.456512,96.115936 
	C407.399231,111.604652 407.212372,127.095299 407.441864,142.579758 
	C407.471924,144.609512 409.561340,146.656860 410.844513,148.598526 
	C411.438599,149.497482 412.387634,150.161850 414.107361,151.843628 
	C400.627197,151.843628 388.627777,151.843628 376.318756,151.843628 
	C376.487427,150.873352 376.387177,149.903091 376.730988,149.705475 
	C381.443756,146.996765 380.094757,143.942566 377.295380,140.839035 
	C355.564362,116.746635 333.818512,92.667625 311.474091,67.916344 
	C311.319183,69.948456 311.148254,71.151764 311.147461,72.355194 
	C311.133148,94.679863 311.180969,117.004692 311.104706,139.329102 
	C311.089844,143.681091 311.130829,147.745636 316.201721,149.486588 
	C316.520508,149.596054 316.509399,150.666382 316.759064,151.759460 
	C305.321381,151.759460 294.185822,151.759460 282.749634,151.759460 
	C282.968689,150.778793 282.946564,149.475388 283.338379,149.336075 
	C288.525879,147.491394 288.129364,143.250092 288.123505,138.997070 
	C288.078888,106.509422 288.085938,74.021667 288.120819,41.533993 
	C288.125214,37.454441 288.486694,33.341270 283.423676,31.706182 
	C283.132477,31.612135 282.989746,30.886105 282.890778,30.429724 
	C282.825531,30.128826 282.962769,29.784037 283.062256,29.089413 
	C295.875641,29.089413 308.739105,29.089413 321.963654,29.089413 
	C321.703857,30.069445 321.749084,31.387262 321.208496,31.703413 
	C316.733765,34.320332 317.903931,37.407295 320.527161,40.342541 
	C341.372406,63.667210 362.281891,86.934479 383.727692,110.839165 
	C383.917297,108.928864 384.139984,107.722946 384.141479,106.516747 
	C384.168060,85.025009 384.158264,63.533237 384.181641,42.041500 
	C384.186157,37.876560 384.849121,33.496296 379.527557,31.676504 
	C379.085663,31.525391 379.011841,30.297966 378.607239,29.096054 
	C390.209534,29.096054 401.386383,29.096054 412.838684,29.096054 
	C412.631012,30.076857 412.650848,31.409626 412.277893,31.530497 
	C406.755096,33.320396 407.213623,37.787449 407.229004,42.182770 
	C407.278015,56.177109 407.243561,70.171738 407.140533,84.943878 
	C407.030518,86.167397 407.021301,86.613297 406.837952,87.133347 
	C406.809052,87.453094 406.954224,87.698700 407.263123,88.178299 
	C407.953705,88.622139 408.480560,88.831993 409.009216,89.442581 
	C409.019409,90.912735 409.027802,91.982147 408.714844,93.166161 
	C408.081177,94.225815 407.768829,95.170876 407.456512,96.115936 
z"/>
<path fill="#040404" opacity="1.000000" stroke="none" 
	d="
M182.502472,113.518509 
	C179.794189,120.178261 177.046890,126.429268 174.813904,132.858902 
	C172.649384,139.091415 170.783157,145.516296 176.647461,151.887451 
	C162.887787,151.887451 150.308044,151.887451 136.868881,151.887451 
	C137.750565,150.571777 138.215240,149.701965 138.843109,148.972672 
	C141.259949,146.165375 144.577820,143.789658 146.047150,140.564026 
	C160.515518,108.801376 174.662933,76.892639 188.950958,45.047577 
	C190.866928,40.777260 191.513901,36.849682 187.733734,33.159637 
	C186.870224,32.316727 186.597885,30.868191 185.798386,29.150272 
	C199.780823,29.150272 213.234268,29.150272 227.038010,29.150272 
	C226.631500,30.274590 226.576767,31.511967 225.941971,32.010105 
	C220.783234,36.058144 222.443008,40.441212 224.699173,45.295448 
	C238.921051,75.894203 252.971176,106.572746 267.137756,137.197296 
	C269.362030,142.005600 271.361359,147.080765 277.028503,149.155365 
	C277.624084,149.373383 277.834991,150.642151 278.450562,151.877228 
	C264.000214,151.877228 250.105865,151.877228 235.956467,151.877228 
	C236.052063,151.018417 235.851059,149.824707 236.269196,149.539871 
	C239.751953,147.167419 239.390091,143.717865 238.461945,140.559174 
	C236.592590,134.197418 234.583954,127.836182 232.043137,121.719666 
	C224.199127,102.836731 216.081299,84.067497 208.057693,65.259270 
	C207.421539,63.768055 206.691971,62.316696 205.652252,60.089478 
	C197.786087,78.278198 190.237274,95.733063 182.502472,113.518509 
z"/>
<path fill="#CF7A3E" opacity="1.000000" stroke="none" 
	d="
M407.885803,96.131943 
	C407.768829,95.170876 408.081177,94.225815 409.173889,93.248375 
	C411.605499,93.216072 413.264282,93.319397 414.906830,93.199783 
	C427.260132,92.300179 439.757111,96.318062 451.999115,92.508827 
	C450.001282,93.644981 448.015747,94.389984 445.602722,95.096336 
	C442.131226,95.352257 439.087250,95.646828 435.656769,95.934113 
	C433.290680,95.687424 431.311096,95.448021 428.899109,95.143509 
	C424.374603,94.620911 423.468536,96.831383 424.252319,100.263817 
	C424.692169,102.190002 425.382202,104.059059 425.957458,106.361000 
	C427.269623,110.177460 428.583862,113.586769 429.951599,117.350197 
	C432.624542,121.157372 435.244049,124.610413 437.877716,128.299194 
	C437.891876,128.534943 437.969910,129.000763 438.071075,129.232880 
	C438.432404,129.674210 438.692566,129.883438 439.087708,130.402313 
	C445.797791,135.515991 452.372894,140.320023 459.011017,145.431152 
	C459.728027,146.146988 460.382050,146.555771 461.018005,146.981659 
	C461.000000,146.998779 461.036621,146.961945 461.042664,147.184814 
	C461.048737,147.407669 461.148590,147.842224 461.080658,147.916473 
	C461.012726,147.990738 460.878571,148.140823 460.878571,148.140823 
	C441.227753,140.930313 429.025146,126.803596 423.151093,107.029648 
	C419.904205,96.099617 420.109680,96.038582 407.885803,96.131943 
z"/>
<path fill="#C58048" opacity="1.000000" stroke="none" 
	d="
M407.012085,87.059204 
	C407.021301,86.613297 407.030518,86.167397 407.171204,85.418762 
	C407.302704,85.116035 407.668518,84.966438 408.078522,85.380920 
	C411.592072,85.830887 414.748901,86.214378 417.775970,85.750679 
	C419.225128,85.528709 421.192841,83.928482 421.599213,82.558922 
	C422.799164,78.514648 423.337433,74.274078 424.134613,70.110306 
	C424.134613,70.110306 424.118927,70.097572 424.381104,69.895241 
	C425.408966,68.121201 426.174683,66.549492 427.275482,64.987137 
	C428.056854,65.000412 428.503174,65.004349 428.922058,65.378204 
	C427.348236,71.085052 425.618652,76.380836 424.403046,81.792068 
	C424.146240,82.935326 425.750824,85.668373 426.531830,85.681755 
	C431.367065,85.764626 436.212006,85.279839 441.275391,84.933067 
	C441.497070,84.882576 441.936737,84.761192 442.339600,84.845955 
	C449.666077,85.661476 451.468658,78.959602 456.081177,75.776688 
	C457.623810,75.055550 458.888184,74.489899 460.243164,74.259460 
	C462.853699,78.765297 465.373627,82.935936 467.870422,87.463745 
	C467.561066,89.215813 467.274780,90.610710 466.957611,92.035255 
	C466.926727,92.064911 466.863983,92.123184 466.658417,92.073486 
	C466.452850,92.023796 466.037720,91.942589 466.037720,91.942589 
	C466.037720,91.942589 465.994598,91.985176 466.014709,91.668411 
	C465.721039,90.832306 465.407257,90.312973 465.093475,89.793633 
	C464.570129,88.658531 464.046814,87.523430 463.247162,85.860291 
	C462.314545,84.223259 461.658295,83.114265 460.972992,81.769669 
	C460.855591,81.203758 460.654266,80.971313 460.283997,80.517982 
	C459.717133,79.313789 459.206207,78.428368 458.458740,77.132988 
	C457.299347,78.629257 456.446106,79.730400 455.314453,80.932083 
	C454.378845,81.746735 453.721680,82.460854 452.744537,83.287216 
	C449.498322,87.414131 445.453613,88.093880 440.719574,88.104568 
	C430.148224,88.128433 419.578033,88.695862 409.007385,89.041840 
	C408.480560,88.831993 407.953705,88.622139 407.314697,87.950073 
	C407.202545,87.487862 407.012085,87.059204 407.012085,87.059204 
z"/>
<path fill="#FDE9C9" opacity="1.000000" stroke="none" 
	d="
M472.636841,17.216772 
	C473.319183,28.568096 473.273010,28.438765 462.475616,32.293411 
	C458.119843,33.848427 454.015625,36.107941 449.436951,38.069756 
	C449.598175,37.139656 449.880463,35.720734 450.680084,35.310654 
	C455.243958,32.970127 459.767487,30.334942 464.625641,28.849344 
	C468.870087,27.551424 471.279968,25.802664 471.107056,21.136593 
	C471.062134,19.924847 471.912415,18.679934 472.636841,17.216772 
z"/>
<path fill="#FDE9C9" opacity="1.000000" stroke="none" 
	d="
M423.763000,70.121620 
	C423.337433,74.274078 422.799164,78.514648 421.599213,82.558922 
	C421.192841,83.928482 419.225128,85.528709 417.775970,85.750679 
	C414.748901,86.214378 411.592072,85.830887 408.265747,85.444138 
	C409.786804,84.811440 411.570892,84.145866 413.266693,84.323410 
	C417.667664,84.784157 419.326477,83.322403 420.139923,78.984184 
	C420.711151,75.937653 422.272278,73.076736 423.763000,70.121620 
z"/>
<path fill="#FDE9C9" opacity="1.000000" stroke="none" 
	d="
M448.692261,38.039536 
	C444.256073,42.630569 439.433258,47.180145 434.299622,51.860939 
	C435.225067,46.121078 442.548492,38.962708 448.692261,38.039536 
z"/>
<path fill="#FDE9C9" opacity="1.000000" stroke="none" 
	d="
M426.940430,64.977783 
	C426.174683,66.549492 425.408966,68.121201 424.378601,69.892265 
	C423.983887,63.009098 427.079285,57.498528 432.767212,53.092255 
	C432.978241,53.800499 432.828827,54.492298 432.782043,55.558151 
	C432.884674,55.932205 432.950500,55.943939 432.586700,55.896454 
	C431.793610,56.891243 431.364319,57.933521 430.967590,58.984390 
	C431.000153,58.992981 430.951233,58.946587 430.602234,58.968796 
	C429.148926,60.986603 428.044678,62.982197 426.940430,64.977783 
z"/>
<path fill="#D56E29" opacity="1.000000" stroke="none" 
	d="
M478.076965,150.920502 
	C477.536499,151.059067 476.996002,151.197632 476.278809,151.554504 
	C475.246918,151.729568 474.391754,151.686325 472.996643,151.259491 
	C471.657990,150.853119 470.859222,150.830338 470.060486,150.807556 
	C469.591614,150.769791 469.122742,150.732025 468.347443,150.270294 
	C468.011353,149.541061 467.998199,149.235077 468.243134,148.673950 
	C471.682098,149.253159 474.879517,150.086838 478.076965,150.920502 
z"/>
<path fill="#CF7A3E" opacity="1.000000" stroke="none" 
	d="
M468.001617,148.928391 
	C467.998199,149.235077 468.011353,149.541061 468.048645,150.075073 
	C465.829895,149.739731 463.603546,149.175629 461.127869,148.376175 
	C460.878571,148.140823 461.012726,147.990738 461.403564,147.956573 
	C462.230438,147.905853 462.666412,147.889313 463.331421,147.881577 
	C463.560394,147.890381 464.014496,147.952332 464.126678,148.176895 
	C464.536743,148.529968 464.834625,148.658463 465.490356,148.818390 
	C466.566010,148.876007 467.283813,148.902191 468.001617,148.928391 
z"/>
<path fill="#CF7A3E" opacity="1.000000" stroke="none" 
	d="
M470.286926,151.000946 
	C470.859222,150.830338 471.657990,150.853119 472.626953,151.035797 
	C472.035889,151.195236 471.274628,151.194778 470.286926,151.000946 
z"/>
<path fill="#FDE9C9" opacity="1.000000" stroke="none" 
	d="
M433.750305,52.093704 
	C433.860565,52.309654 433.730835,52.628868 433.347137,53.032127 
	C433.232239,52.809769 433.371307,52.503372 433.750305,52.093704 
z"/>
<path fill="#040404" opacity="1.000000" stroke="none" 
	d="
M558.853821,93.299187 
	C558.853821,93.299187 558.414490,93.153519 558.103760,92.873878 
	C557.584167,92.388290 557.344971,92.227654 557.060059,91.717438 
	C557.023621,90.269669 557.002502,89.216782 556.936646,88.096649 
	C556.891785,88.029388 556.924988,87.871162 557.209351,87.887207 
	C557.686279,87.606941 557.878845,87.310631 558.037598,87.013443 
	C558.003784,87.012558 558.032593,87.073738 558.258179,86.830490 
	C558.456116,85.964020 558.428406,85.340805 558.400757,84.717598 
	C558.427979,69.399734 558.596069,54.079372 558.323853,38.766830 
	C558.284973,36.579418 556.178955,34.391148 554.901855,32.280621 
	C554.338440,31.349554 553.455261,30.611956 552.198669,29.206482 
	C554.230164,28.947975 555.190002,28.718431 556.149658,28.719406 
	C581.128235,28.744781 606.108521,28.653252 631.084290,28.940182 
	C637.184631,29.010263 643.448669,29.660484 649.328247,31.214132 
	C664.318115,35.175163 672.837830,48.013741 672.810791,65.406822 
	C672.781738,84.166985 663.669250,95.689438 645.405457,100.063316 
	C644.301331,100.327721 643.201050,100.608383 641.076172,101.134979 
	C654.842285,117.599297 661.463623,138.486053 679.830688,151.818848 
	C665.233276,151.818848 651.545349,151.818848 637.439697,151.818848 
	C637.749329,150.838959 637.821045,149.444717 638.295410,149.290665 
	C643.064941,147.742081 641.861450,144.883224 640.000183,141.947876 
	C631.984924,129.306915 623.970886,116.664391 615.800964,104.123749 
	C615.072571,103.005684 613.236511,102.014458 611.894104,101.987183 
	C602.751892,101.801453 593.604187,101.889969 583.795227,101.889969 
	C583.795227,107.259674 583.796143,112.500999 583.795044,117.742325 
	C583.793518,125.069527 583.840759,132.397232 583.767883,139.723740 
	C583.728943,143.640869 583.486755,147.501266 588.232239,149.209763 
	C588.757324,149.398834 588.839966,150.816803 589.233459,151.976196 
	C577.046265,151.976196 565.268005,151.976196 553.067505,151.976196 
	C553.368652,150.884155 553.385864,149.479294 553.862976,149.300293 
	C558.425842,147.588455 558.586853,143.936310 558.554321,139.903397 
	C558.436157,125.250198 558.471863,110.595764 558.433960,95.475525 
	C558.418457,95.009247 558.685913,94.992058 559.146973,94.933952 
	C559.947632,94.176979 560.287231,93.478104 560.626770,92.779236 
	C560.035767,92.952553 559.444824,93.125870 558.853821,93.299187 
M583.802612,79.478806 
	C584.699646,80.117958 585.596985,81.313896 586.493713,81.313477 
	C602.123535,81.306221 617.757507,81.324623 633.380981,80.945152 
	C639.597961,80.794151 644.660156,77.953247 646.730774,71.587166 
	C650.766968,59.177628 644.339172,49.684200 631.278137,49.250534 
	C619.648865,48.864403 607.999084,49.090549 596.358398,49.054394 
	C592.256958,49.041653 588.155396,49.052353 583.795837,49.052353 
	C583.795837,59.229900 583.795837,68.855476 583.802612,79.478806 
z"/>
<path fill="#040404" opacity="1.000000" stroke="none" 
	d="
M718.092834,143.767426 
	C719.095337,146.666748 720.095947,149.146286 721.200500,151.883362 
	C708.268494,151.883362 695.711670,151.883362 682.602356,151.883362 
	C683.179138,150.657684 683.367676,149.381088 683.942566,149.173203 
	C688.718079,147.446518 690.481812,143.327713 692.330383,139.185852 
	C706.010010,108.534721 719.666321,77.872993 733.461365,47.273800 
	C735.852966,41.968769 737.637146,37.050220 732.590393,32.268337 
	C731.986389,31.695997 732.006836,30.464651 731.608215,29.092987 
	C745.320618,29.092987 758.646912,29.092987 772.446716,29.092987 
	C771.924805,30.389860 771.804077,31.751823 771.064575,32.354603 
	C766.322815,36.219814 767.870483,40.349903 769.970459,44.875462 
	C784.380737,75.931084 798.657715,107.048531 813.036438,138.118881 
	C815.127869,142.638168 817.202576,147.290802 822.538574,149.075455 
	C822.937988,149.209030 823.333435,149.695175 823.493530,150.109146 
	C823.657532,150.533508 823.529785,151.070679 823.529785,151.864929 
	C809.449280,151.864929 795.399109,151.864929 780.711670,151.864929 
	C787.781616,143.221329 782.970154,135.154938 779.877319,127.532753 
	C770.946838,105.523979 761.397522,83.766296 752.080994,61.914375 
	C751.921021,61.539066 751.632996,61.218315 751.045410,60.327084 
	C746.757324,70.184998 742.658630,79.581924 738.581055,88.988037 
	C733.163086,101.486023 727.513306,113.892166 722.471008,126.540260 
	C720.343567,131.876648 719.511719,137.729523 718.092834,143.767426 
z"/>
<path fill="#E26E24" opacity="1.000000" stroke="none" 
	d="
M504.908112,82.028313 
	C505.111694,82.016479 505.315308,82.004654 506.098938,82.112747 
	C507.773041,82.837227 508.867157,83.441780 509.975433,84.418213 
	C511.353180,87.839851 512.594604,91.091179 517.419312,89.039856 
	C522.733887,88.009880 527.628540,86.465775 532.606873,86.117058 
	C540.024536,85.597473 542.830200,81.669464 539.797974,74.601494 
	C536.975220,68.021759 533.939514,61.533371 531.270264,54.828064 
	C531.765320,54.282997 531.987671,53.914639 532.210022,53.546280 
	C538.455139,61.601414 542.605713,70.601288 543.964539,80.728683 
	C544.443054,84.294891 546.054260,85.502922 549.505371,85.172127 
	C551.953186,84.937500 554.446533,85.178040 557.388062,85.496567 
	C557.915283,86.215683 557.973938,86.644714 558.032593,87.073738 
	C558.032593,87.073738 558.003784,87.012558 557.775330,87.040207 
	C557.339600,87.335625 557.132263,87.603394 556.924988,87.871162 
	C556.924988,87.871162 556.891785,88.029388 556.567017,88.004303 
	C555.481995,88.027954 554.721802,88.076683 553.502197,88.047058 
	C549.265686,87.954445 545.483765,87.816185 541.712341,87.956512 
	C536.699341,88.143036 531.694519,88.546715 526.337158,88.887657 
	C522.903870,90.543846 519.897400,92.354515 516.695435,93.699951 
	C515.490540,94.206215 513.082947,94.207176 512.508179,93.455856 
	C509.734680,89.830368 507.399048,85.869942 504.908112,82.028313 
z"/>
<path fill="#D6702B" opacity="1.000000" stroke="none" 
	d="
M517.198181,39.790329 
	C521.863342,43.851410 526.528503,47.912479 531.164551,52.416382 
	C531.135376,52.859211 530.928162,53.071754 530.610229,53.047886 
	C529.866394,53.013634 529.440430,53.003250 528.756042,52.790009 
	C527.666382,51.717773 526.835083,50.848389 525.855957,49.680912 
	C522.774780,46.286259 519.841614,43.189693 516.980957,40.017544 
	C517.053528,39.941959 517.198181,39.790321 517.198181,39.790329 
z"/>
<path fill="#797979" opacity="1.000000" stroke="none" 
	d="
M558.258179,86.830490 
	C557.973938,86.644714 557.915283,86.215683 557.841003,85.465668 
	C557.825378,85.144669 557.990417,84.765678 558.195557,84.741638 
	C558.428406,85.340805 558.456116,85.964020 558.258179,86.830490 
z"/>
<path fill="#D6702B" opacity="1.000000" stroke="none" 
	d="
M515.248108,38.743328 
	C515.812683,38.910938 516.377319,39.078552 517.070068,39.518242 
	C517.198181,39.790321 517.053528,39.941959 516.694702,39.973629 
	C515.881592,39.682899 515.427307,39.360504 515.040527,38.963245 
	C515.108093,38.888386 515.248108,38.743332 515.248108,38.743328 
z"/>
<path fill="#D6702B" opacity="1.000000" stroke="none" 
	d="
M532.155762,53.324352 
	C531.987671,53.914639 531.765320,54.282997 531.271484,54.825748 
	C531.000000,55.000137 530.995117,55.002354 530.994019,54.679943 
	C530.971313,53.928940 530.949768,53.500347 530.928223,53.071754 
	C530.928162,53.071754 531.135376,52.859211 531.238281,52.751667 
	C531.670532,52.670799 531.923950,52.823566 532.155762,53.324352 
z"/>
<path fill="#D6702B" opacity="1.000000" stroke="none" 
	d="
M513.160645,37.821690 
	C513.806458,37.897316 514.387817,38.047489 515.108643,38.470497 
	C515.248108,38.743332 515.108093,38.888386 514.746826,38.931580 
	C513.913208,38.665310 513.440857,38.355843 512.968506,38.046368 
	C512.968506,38.046360 513.096191,37.896236 513.160645,37.821690 
z"/>
<path fill="#240201" opacity="1.000000" stroke="none" 
	d="
M553.961548,88.125420 
	C554.721802,88.076683 555.481995,88.027954 556.611816,88.071564 
	C557.002502,89.216782 557.023621,90.269669 556.680542,91.767258 
	C554.898071,92.394508 553.479797,92.577049 552.061462,92.759598 
	C548.637634,92.744263 545.213745,92.728935 541.269043,92.601105 
	C540.490112,92.369911 540.311707,92.433884 540.213013,92.680511 
	C537.064819,92.696777 533.916565,92.713043 530.236755,92.616158 
	C529.427063,92.434006 529.242676,92.537682 529.151978,92.814041 
	C524.030884,95.315758 518.909851,97.817474 513.227417,100.593391 
	C510.734924,97.830719 508.059326,94.865105 504.652100,91.088570 
	C500.975922,101.697502 499.697479,111.855301 498.692657,122.778267 
	C498.269531,124.621895 498.182251,125.824562 498.094971,127.027222 
	C498.078430,127.478966 498.061829,127.930702 497.693726,128.959961 
	C497.240448,130.719070 497.138702,131.900681 497.036987,133.082275 
	C497.042145,133.516571 497.047302,133.950867 496.713989,134.954330 
	C496.270020,136.723663 496.164490,137.923843 496.058960,139.124008 
	C496.060059,139.549988 496.061157,139.975967 495.716553,140.972183 
	C495.250885,143.036850 495.130920,144.531296 495.010925,146.025726 
	C495.001801,146.780975 494.992676,147.536240 494.668579,148.892807 
	C494.305664,150.138474 494.257721,150.782837 494.209747,151.427185 
	C494.181885,152.079971 494.154022,152.732773 493.821716,153.812073 
	C493.259552,154.445297 493.075012,154.704208 492.963623,155.015305 
	C492.376099,154.769897 491.788605,154.524490 491.053040,153.646759 
	C491.005798,152.329529 491.106598,151.644623 491.431549,150.723785 
	C491.697357,149.844879 491.739044,149.201935 491.771790,148.136902 
	C491.869049,145.149261 491.975220,142.583694 492.081421,140.018112 
	C492.342529,139.531235 492.603638,139.044373 492.925232,137.946899 
	C492.956268,136.893311 492.926788,136.450317 492.897339,136.007324 
	C493.888916,129.748352 494.995148,123.504936 495.846741,117.226974 
	C497.328583,106.302902 498.633545,95.354935 500.059174,84.423058 
	C500.377045,81.985352 501.319733,80.305099 504.536957,82.008148 
	C507.399048,85.869942 509.734680,89.830368 512.508179,93.455856 
	C513.082947,94.207176 515.490540,94.206215 516.695435,93.699951 
	C519.897400,92.354515 522.903870,90.543846 526.831055,88.939117 
	C531.441772,88.972511 535.213501,89.100746 538.976196,88.968979 
	C543.975037,88.793930 548.966736,88.416115 553.961548,88.125420 
z"/>
<path fill="#D56E29" opacity="1.000000" stroke="none" 
	d="
M484.714783,143.014343 
	C484.714813,143.014343 484.329376,143.013885 483.861755,142.718933 
	C482.923492,136.951859 482.452881,131.479767 481.992310,125.577652 
	C481.664368,122.404907 481.326416,119.662186 480.988525,116.477875 
	C480.474609,105.664909 479.960571,95.293526 479.446533,84.922150 
	C479.017975,84.952988 478.589386,84.983826 478.160797,85.014664 
	C477.765106,93.401115 477.411102,101.789909 476.942444,110.172279 
	C476.833984,112.112740 476.333740,114.031296 475.643616,115.972382 
	C473.848175,116.316978 472.422882,116.649132 470.763000,116.970192 
	C470.528442,116.959099 470.059662,116.929993 470.034790,116.640961 
	C469.699829,115.895203 469.389740,115.438477 469.026550,114.617226 
	C468.666504,112.827805 468.359528,111.402908 468.411713,110.051819 
	C470.429382,111.015343 472.087921,111.905060 473.746429,112.794769 
	C473.932922,110.911659 474.119446,109.028534 474.305969,107.145416 
	C474.870789,96.711525 475.435577,86.277634 476.435608,75.322433 
	C477.248230,73.160385 477.374664,71.399544 478.083710,69.917450 
	C478.634949,68.765259 479.912598,67.960587 480.867371,67.001450 
	C481.558411,80.046173 482.249451,93.090881 482.916931,107.014366 
	C483.078491,110.593559 483.263611,113.293968 483.448730,115.994377 
	C483.473724,116.717033 483.498688,117.439690 483.477386,118.901108 
	C483.793610,124.417801 484.156158,129.195724 484.518707,133.973648 
	C484.528748,134.395981 484.538818,134.818314 484.492920,135.912292 
	C484.529602,138.727417 484.622192,140.870880 484.714783,143.014343 
z"/>
<path fill="#350C02" opacity="1.000000" stroke="none" 
	d="
M409.009216,89.442581 
	C419.578033,88.695862 430.148224,88.128433 440.719574,88.104568 
	C445.453613,88.093880 449.498322,87.414131 452.735901,83.660782 
	C453.775299,84.734322 454.423950,86.128548 455.247559,86.240959 
	C457.121033,86.496658 459.080444,86.122826 461.002441,86.002625 
	C461.000000,86.000389 460.995056,85.995178 460.995056,85.995178 
	C461.645447,88.479515 462.295868,90.963860 462.632263,93.638824 
	C460.603943,92.142319 458.889648,90.455185 456.988159,88.528122 
	C455.204468,89.564697 453.607910,90.841187 452.011383,92.117676 
	C439.757111,96.318062 427.260132,92.300179 414.906830,93.199783 
	C413.264282,93.319397 411.605499,93.216072 409.495209,93.133774 
	C409.027802,91.982147 409.019409,90.912735 409.009216,89.442581 
z"/>
<path fill="#D07326" opacity="1.000000" stroke="none" 
	d="
M466.988495,92.005600 
	C467.274780,90.610710 467.561066,89.215813 467.912170,87.031570 
	C468.259521,82.806244 468.542084,79.370262 468.885315,75.493912 
	C469.229523,70.362793 469.513092,65.672058 469.854980,60.613930 
	C469.879425,59.505661 469.845581,58.764790 469.991486,57.658020 
	C470.494385,54.529385 470.817505,51.766644 471.140625,49.003902 
	C471.516235,52.431778 471.891815,55.859653 472.499664,59.603790 
	C472.736664,60.744099 472.741425,61.568146 472.554016,62.874649 
	C472.311157,63.608536 472.411041,63.787945 472.661499,63.895344 
	C472.021942,72.984573 471.382385,82.073799 470.264526,91.599037 
	C468.853638,92.025223 467.921082,92.015411 466.988495,92.005600 
z"/>
<path fill="#CA6E2F" opacity="1.000000" stroke="none" 
	d="
M457.175354,88.768036 
	C458.889648,90.455185 460.603943,92.142319 462.582458,94.042709 
	C464.701660,98.169876 466.356232,102.198555 468.502075,105.945930 
	C469.473938,107.643105 471.069336,110.232697 473.968994,107.204811 
	C474.119446,109.028534 473.932922,110.911659 473.746429,112.794769 
	C472.087921,111.905060 470.429382,111.015343 468.385620,109.816803 
	C468.000397,109.507988 467.983917,109.034996 467.959717,108.690353 
	C466.960175,106.893173 465.984894,105.440643 464.996948,103.749229 
	C464.984314,103.510345 464.990845,103.031960 464.885925,102.803185 
	C464.509888,102.385994 464.238800,102.197586 463.729462,102.003723 
	C463.491241,101.998268 463.015411,101.971436 462.881287,101.729767 
	C462.204407,101.001686 461.661591,100.515282 461.109863,99.634491 
	C459.792419,95.749420 458.483917,92.258720 457.175354,88.768036 
z"/>
<path fill="#C37D41" opacity="1.000000" stroke="none" 
	d="
M480.914490,66.590485 
	C479.912598,67.960587 478.634949,68.765259 478.083710,69.917450 
	C477.374664,71.399544 477.248230,73.160385 476.500702,74.893486 
	C475.601105,68.804588 476.760712,62.925739 478.097656,57.078640 
	C478.550964,57.139790 479.004272,57.200943 479.457550,57.262096 
	C479.958893,60.234573 480.460266,63.207054 480.914490,66.590485 
z"/>
<path fill="#541908" opacity="1.000000" stroke="none" 
	d="
M489.269135,137.980804 
	C489.214508,138.433853 489.159882,138.886917 489.019958,139.671478 
	C488.295715,130.234863 487.656738,120.466759 487.117554,110.214462 
	C487.838654,118.522804 488.459991,127.315323 489.123169,136.807953 
	C489.164948,137.508072 489.269135,137.980804 489.269135,137.980804 
z"/>
<path fill="#B36D46" opacity="1.000000" stroke="none" 
	d="
M491.207397,150.959717 
	C491.106598,151.644623 491.005798,152.329529 490.894348,153.359863 
	C490.226013,152.514374 489.112793,151.363419 489.004059,150.124329 
	C488.766693,147.418365 489.039917,144.667587 489.171082,141.479401 
	C490.030609,140.763397 490.823608,140.503082 491.848999,140.130432 
	C491.975220,142.583694 491.869049,145.149261 491.571838,148.393005 
	C491.322998,149.700699 491.265198,150.330200 491.207397,150.959717 
z"/>
<path fill="#541908" opacity="1.000000" stroke="none" 
	d="
M484.700592,133.617416 
	C484.156158,129.195724 483.793610,124.417801 483.588623,119.246445 
	C484.124908,123.655739 484.503693,128.458466 484.700592,133.617416 
z"/>
<path fill="#C58048" opacity="1.000000" stroke="none" 
	d="
M466.957611,92.035255 
	C467.921082,92.015411 468.853638,92.025223 470.133423,92.051987 
	C470.244293,93.603493 470.007935,95.138046 469.310120,96.520935 
	C468.258881,95.520294 467.669067,94.671318 467.079285,93.822342 
	C467.079285,93.822334 466.994354,93.380180 466.908447,92.974457 
	C466.822571,92.568726 466.863983,92.123184 466.863983,92.123184 
	C466.863983,92.123184 466.926727,92.064911 466.957611,92.035255 
z"/>
<path fill="#3C0B03" opacity="1.000000" stroke="none" 
	d="
M492.592468,161.275406 
	C492.453522,164.210037 492.034454,167.389923 491.369202,170.879318 
	C491.519501,167.966110 491.915894,164.743378 492.592468,161.275406 
z"/>
<path fill="#541908" opacity="1.000000" stroke="none" 
	d="
M484.783813,143.351913 
	C484.622192,140.870880 484.529602,138.727417 484.589539,136.215347 
	C485.032898,138.703629 485.323700,141.560501 485.376251,144.725403 
	C485.042969,144.585434 484.947906,144.137451 484.783813,143.351913 
z"/>
<path fill="#541908" opacity="1.000000" stroke="none" 
	d="
M483.641968,115.663177 
	C483.263611,113.293968 483.078491,110.593559 482.962341,107.445160 
	C483.299255,109.775444 483.567230,112.553719 483.641968,115.663177 
z"/>
<path fill="#350C02" opacity="1.000000" stroke="none" 
	d="
M461.002014,82.005264 
	C461.658295,83.114265 462.314545,84.223259 463.003693,85.661423 
	C462.582916,85.993782 462.129272,85.996964 461.335327,85.997665 
	C460.995056,85.995178 461.000000,86.000389 461.000671,85.602402 
	C461.001556,84.138031 461.001801,83.071648 461.002014,82.005264 
z"/>
<path fill="#350C02" opacity="1.000000" stroke="none" 
	d="
M467.050781,94.197601 
	C467.669067,94.671318 468.258881,95.520294 468.974396,96.657104 
	C468.407532,96.154236 467.714935,95.363541 467.050781,94.197601 
z"/>
<path fill="#3C0B03" opacity="1.000000" stroke="none" 
	d="
M492.967346,155.420288 
	C493.075012,154.704208 493.259552,154.445297 493.730652,154.128113 
	C493.838654,155.237442 493.733276,156.457275 493.392120,157.964691 
	C493.094574,157.443283 493.032837,156.634277 492.967346,155.420288 
z"/>
<path fill="#541908" opacity="1.000000" stroke="none" 
	d="
M485.599121,149.795807 
	C485.294312,149.257492 485.169128,148.490814 485.119324,147.337708 
	C485.389404,147.823334 485.584106,148.695389 485.599121,149.795807 
z"/>
<path fill="#350C02" opacity="1.000000" stroke="none" 
	d="
M465.070496,90.118935 
	C465.407257,90.312973 465.721039,90.832306 466.044617,91.663513 
	C465.718750,91.465004 465.383118,90.954620 465.070496,90.118935 
z"/>
<path fill="#541908" opacity="1.000000" stroke="none" 
	d="
M485.926514,156.772812 
	C485.777405,156.764313 485.665985,156.442993 485.683044,155.985168 
	C485.862396,156.052414 485.913300,156.256210 485.926514,156.772812 
z"/>
<path fill="#350C02" opacity="1.000000" stroke="none" 
	d="
M466.658417,92.073486 
	C466.863983,92.123184 466.822571,92.568726 466.781189,92.788765 
	C466.452301,92.880653 466.245361,92.672462 466.078308,92.163406 
	C466.037720,91.942589 466.452850,92.023796 466.658417,92.073486 
z"/>
<path fill="#C37D41" opacity="1.000000" stroke="none" 
	d="
M472.666870,63.708832 
	C472.411041,63.787945 472.311157,63.608536 472.436188,63.271545 
	C472.510529,63.185986 472.672211,63.522320 472.666870,63.708832 
z"/>
<path fill="#F47C1E" opacity="1.000000" stroke="none" 
	d="
M512.601807,38.033569 
	C513.440857,38.355843 513.913208,38.665310 514.679321,39.006439 
	C515.427307,39.360504 515.881592,39.682899 516.622131,40.049213 
	C519.841614,43.189693 522.774780,46.286259 525.665588,49.955200 
	C524.060730,51.897572 522.498291,53.267567 521.250549,54.361641 
	C522.653015,57.208138 525.274414,60.108181 524.631897,61.632648 
	C521.410400,69.276466 522.361511,78.315582 516.696167,85.133682 
	C516.099121,85.852203 516.889893,87.723900 517.036804,89.060585 
	C512.594604,91.091179 511.353180,87.839851 510.255341,84.212708 
	C511.139313,81.076782 511.712494,78.506332 512.384155,75.961891 
	C514.621338,67.487335 516.965637,59.029472 515.395264,50.100719 
	C516.491516,50.125683 517.222412,50.179596 518.034912,50.546104 
	C518.983704,50.960209 519.850891,51.061710 520.718018,51.163208 
	C520.166626,50.436047 519.615173,49.708885 518.881104,48.696430 
	C516.809631,46.926090 514.920715,45.441040 512.993835,43.669144 
	C512.308044,43.242023 511.660187,43.101753 510.666290,42.951141 
	C509.628571,42.907555 508.936951,42.874306 508.194336,42.534157 
	C508.096924,41.812286 508.050507,41.397312 508.042328,40.667763 
	C508.731506,39.554459 509.382416,38.755726 510.033356,37.956993 
	C510.767242,37.978249 511.501160,37.999508 512.601807,38.033569 
z"/>
<path fill="#FCA941" opacity="1.000000" stroke="none" 
	d="
M489.139343,86.949020 
	C489.090942,84.256989 489.042542,81.564957 489.392883,78.426918 
	C493.485168,77.293335 494.941895,75.007019 495.038910,71.325043 
	C495.234955,63.883385 495.669769,56.448021 496.390747,48.994362 
	C498.526215,48.682983 500.277008,48.387299 502.019958,48.550758 
	C501.311066,57.081573 504.071808,65.576874 499.061584,73.121223 
	C498.366119,76.135460 497.670685,79.149696 496.575867,82.590752 
	C493.494781,83.726669 493.210480,88.726974 489.139343,86.949020 
z"/>
<path fill="#FD8E2B" opacity="1.000000" stroke="none" 
	d="
M515.029907,50.129669 
	C516.965637,59.029472 514.621338,67.487335 512.384155,75.961891 
	C511.712494,78.506332 511.139313,81.076782 510.241150,83.840836 
	C508.867157,83.441780 507.773041,82.837227 506.404175,82.092148 
	C505.406769,80.243355 504.684174,78.535072 504.116730,76.132416 
	C505.166199,73.714684 506.688354,72.046021 506.844055,70.258354 
	C507.459747,63.188271 507.647278,56.080906 508.365356,48.977211 
	C509.480682,48.949654 510.224182,48.932247 511.315674,48.985245 
	C512.785706,49.413658 513.907837,49.771664 515.029907,50.129669 
z"/>
<path fill="#FBB350" opacity="1.000000" stroke="none" 
	d="
M496.006104,49.010063 
	C495.669769,56.448021 495.234955,63.883385 495.038910,71.325043 
	C494.941895,75.007019 493.485168,77.293335 489.416046,77.977371 
	C488.379395,68.596657 487.718262,59.219494 487.525208,49.415031 
	C490.664215,48.995178 493.335144,49.002621 496.006104,49.010063 
z"/>
<path fill="#FDBD6E" opacity="1.000000" stroke="none" 
	d="
M496.390747,48.994362 
	C493.335144,49.002621 490.664215,48.995178 487.555054,48.968307 
	C487.059509,46.607353 487.002136,44.265827 486.964600,41.105713 
	C487.024445,39.525883 487.064423,38.764641 487.503967,38.005867 
	C494.684143,39.619236 501.464722,41.230148 508.245300,42.841057 
	C508.936951,42.874306 509.628571,42.907555 510.665527,43.208576 
	C511.025482,43.647121 511.040131,43.817890 510.797119,44.186813 
	C510.682190,45.894920 510.824951,47.404881 510.967712,48.914841 
	C510.224182,48.932247 509.480682,48.949654 507.990356,48.921844 
	C505.504974,48.614964 503.766418,48.353294 502.027832,48.091621 
	C500.277008,48.387299 498.526215,48.682983 496.390747,48.994362 
z"/>
<path fill="#FD9C37" opacity="1.000000" stroke="none" 
	d="
M502.019958,48.550766 
	C503.766418,48.353294 505.504974,48.614964 507.618561,48.931999 
	C507.647278,56.080906 507.459747,63.188271 506.844055,70.258354 
	C506.688354,72.046021 505.166199,73.714684 504.106781,75.774460 
	C502.532135,75.131065 501.122650,74.151253 499.387360,73.146332 
	C504.071808,65.576874 501.311066,57.081573 502.019958,48.550766 
z"/>
<path fill="#F2933A" opacity="1.000000" stroke="none" 
	d="
M509.810852,37.690838 
	C509.382416,38.755726 508.731506,39.554459 507.668762,40.668221 
	C503.522247,39.375931 499.704681,37.933350 496.079468,36.108524 
	C493.239990,34.679188 490.638763,32.776443 487.931702,31.084023 
	C495.150574,33.197575 502.369446,35.311131 509.810852,37.690838 
z"/>
<path fill="#FEB05D" opacity="1.000000" stroke="none" 
	d="
M487.567993,31.158836 
	C490.638763,32.776443 493.239990,34.679188 496.079468,36.108524 
	C499.704681,37.933350 503.522247,39.375931 507.630493,40.982796 
	C508.050507,41.397312 508.096924,41.812286 508.194336,42.534157 
	C501.464722,41.230148 494.684143,39.619236 487.260498,37.981728 
	C486.617432,37.955132 486.136047,37.880112 486.136047,37.880112 
	C486.492126,35.664623 486.848206,33.449139 487.567993,31.158836 
z"/>
<path fill="#FD8E2B" opacity="1.000000" stroke="none" 
	d="
M495.990356,92.973740 
	C494.968201,98.868370 493.946045,104.762993 492.923889,110.657616 
	C492.388123,110.641869 491.852356,110.626114 491.316589,110.610367 
	C488.567261,105.344940 490.650055,99.453964 490.416443,93.457581 
	C492.567505,92.988159 494.278900,92.980949 495.990356,92.973740 
z"/>
<path fill="#FD9C37" opacity="1.000000" stroke="none" 
	d="
M496.000336,92.539597 
	C494.278900,92.980949 492.567505,92.988159 490.428101,92.988838 
	C489.707031,91.227623 489.413910,89.472939 489.130066,87.333641 
	C493.210480,88.726974 493.494781,83.726669 496.557739,82.994751 
	C496.629425,86.016441 496.319885,89.060951 496.000336,92.539597 
z"/>
<path fill="#F2933A" opacity="1.000000" stroke="none" 
	d="
M486.088562,38.227295 
	C486.136047,37.880112 486.617432,37.955132 486.860901,37.979267 
	C487.064423,38.764641 487.024445,39.525883 486.939941,40.666512 
	C486.610626,40.222092 486.325867,39.398285 486.088562,38.227295 
z"/>
<path fill="#B36D46" opacity="1.000000" stroke="none" 
	d="
M492.696777,136.155243 
	C492.926788,136.450317 492.956268,136.893311 492.890686,137.657959 
	C492.695831,137.420792 492.596039,136.861969 492.696777,136.155243 
z"/>
<path fill="#B36D46" opacity="1.000000" stroke="none" 
	d="
M489.388245,137.878036 
	C489.269135,137.980804 489.164948,137.508072 489.188721,137.267502 
	C489.554993,137.199722 489.653290,137.449173 489.388245,137.878036 
z"/>
<path fill="#FD6602" opacity="1.000000" stroke="none" 
	d="
M516.998901,138.986176 
	C513.920898,140.672058 510.842926,142.357941 507.246948,143.741928 
	C504.802826,140.926712 502.876678,138.413406 500.950531,135.900101 
	C501.444336,128.310059 501.725250,120.696404 502.563019,113.144524 
	C502.810974,110.909653 504.628876,108.848953 506.249817,105.690346 
	C506.346222,105.904808 505.635803,104.900871 505.483917,103.818558 
	C505.342163,102.808083 505.531281,101.526978 506.095581,100.736977 
	C506.374176,100.346962 508.083099,100.452911 508.707703,100.919525 
	C513.380615,104.410400 517.082520,102.633606 521.165466,99.494568 
	C526.171326,95.646004 532.131287,94.070541 538.473816,95.101357 
	C539.448181,95.259720 540.822693,96.875938 540.893005,97.895111 
	C541.060425,100.322304 540.558167,102.795708 539.796997,105.689560 
	C535.915100,108.636482 534.136475,111.807411 535.059204,116.116524 
	C532.634949,120.259743 530.453186,124.573257 527.703979,128.488251 
	C525.766785,131.246796 523.058838,133.464035 520.206421,135.641861 
	C518.269958,132.194046 516.287231,130.916702 512.983643,133.008560 
	C514.526062,135.304764 515.762451,137.145477 516.998901,138.986176 
z"/>
<path fill="#FB6704" opacity="1.000000" stroke="none" 
	d="
M500.590149,135.995087 
	C502.876678,138.413406 504.802826,140.926712 506.879303,143.754211 
	C504.112274,145.314453 501.194885,146.560532 498.277496,147.806595 
	C497.812195,147.292099 497.346893,146.777618 496.881622,146.263123 
	C497.997681,142.872101 499.113708,139.481094 500.590149,135.995087 
z"/>
<path fill="#FB6704" opacity="1.000000" stroke="none" 
	d="
M517.280273,138.860107 
	C515.762451,137.145477 514.526062,135.304764 512.983643,133.008560 
	C516.287231,130.916702 518.269958,132.194046 519.865051,135.693924 
	C519.195374,136.929413 518.378479,137.831726 517.280273,138.860107 
z"/>
<path fill="#FB6704" opacity="1.000000" stroke="none" 
	d="
M535.401001,116.029213 
	C534.136475,111.807411 535.915100,108.636482 539.622986,106.064758 
	C538.566589,109.314537 537.154724,112.628220 535.401001,116.029213 
z"/>
<path fill="#240201" opacity="1.000000" stroke="none" 
	d="
M558.770142,93.566750 
	C559.444824,93.125870 560.035767,92.952553 560.626770,92.779236 
	C560.287231,93.478104 559.947632,94.176979 559.271484,94.884445 
	C558.852112,94.540138 558.769287,94.187225 558.770142,93.566750 
z"/>
<path fill="#735B50" opacity="1.000000" stroke="none" 
	d="
M552.468628,92.861008 
	C553.479797,92.577049 554.898071,92.394508 556.695923,92.162148 
	C557.344971,92.227654 557.584167,92.388290 557.888062,92.790092 
	C556.280640,92.978104 554.578186,92.970261 552.468628,92.861008 
z"/>
<path fill="#3C0B03" opacity="1.000000" stroke="none" 
	d="
M498.315979,126.758163 
	C498.182251,125.824562 498.269531,124.621895 498.589661,123.221970 
	C498.727356,124.179512 498.632172,125.334312 498.315979,126.758163 
z"/>
<path fill="#3C0B03" opacity="1.000000" stroke="none" 
	d="
M495.249115,145.742950 
	C495.130920,144.531296 495.250885,143.036850 495.632568,141.280945 
	C495.758606,142.499710 495.622955,143.979935 495.249115,145.742950 
z"/>
<path fill="#3C0B03" opacity="1.000000" stroke="none" 
	d="
M496.318390,138.868362 
	C496.164490,137.923843 496.270020,136.723663 496.631287,135.270020 
	C496.783997,136.215271 496.680908,137.413986 496.318390,138.868362 
z"/>
<path fill="#3C0B03" opacity="1.000000" stroke="none" 
	d="
M497.270966,132.814575 
	C497.138702,131.900681 497.240448,130.719070 497.589294,129.283707 
	C497.725952,130.202255 497.615448,131.374573 497.270966,132.814575 
z"/>
<path fill="#3C0B03" opacity="1.000000" stroke="none" 
	d="
M494.424103,151.179840 
	C494.257721,150.782837 494.305664,150.138474 494.584656,149.261841 
	C494.756622,149.663864 494.697540,150.298187 494.424103,151.179840 
z"/>
<path fill="#735B50" opacity="1.000000" stroke="none" 
	d="
M540.372498,92.744186 
	C540.311707,92.433884 540.490112,92.369911 540.800659,92.587418 
	C540.853149,92.686234 540.531982,92.807869 540.372498,92.744186 
z"/>
<path fill="#735B50" opacity="1.000000" stroke="none" 
	d="
M529.328613,92.837410 
	C529.242676,92.537682 529.427063,92.434006 529.765686,92.604500 
	C529.826233,92.705994 529.505310,92.860786 529.328613,92.837410 
z"/>
<path fill="#FBDA77" opacity="1.000000" stroke="none" 
	d="
M471.095062,48.580032 
	C470.817505,51.766644 470.494385,54.529385 469.781555,57.651093 
	C469.391846,58.010056 468.970886,57.998665 468.980469,57.584442 
	C469.304535,54.791885 469.619019,52.413548 469.804840,49.671852 
	C468.806824,47.887779 468.080688,45.370979 467.043396,45.235439 
	C462.467987,44.637585 457.716583,43.119011 453.312164,46.329262 
	C451.080170,47.956051 448.292816,48.848557 446.159363,50.571735 
	C445.001099,51.507275 444.687347,53.488480 443.624390,55.041111 
	C439.114899,56.465572 440.134521,59.972450 439.675842,62.976517 
	C438.568390,62.633896 437.780182,62.316723 436.994202,61.612007 
	C437.513336,59.740166 437.926086,58.208961 438.568817,56.781303 
	C439.922455,53.774567 441.396667,50.822117 442.821411,47.847370 
	C442.821381,47.847366 442.945099,47.964718 443.271423,47.948830 
	C445.931915,47.585781 448.287720,47.255856 446.820007,43.883461 
	C448.924133,42.586712 451.028259,41.289967 453.814087,39.941650 
	C459.441010,39.239109 464.386230,38.588135 469.139465,37.962437 
	C469.953918,40.106697 470.510773,41.572781 471.067627,43.038864 
	C471.061584,44.744633 471.055542,46.450397 471.095062,48.580032 
z"/>
<path fill="#FBB350" opacity="1.000000" stroke="none" 
	d="
M441.053741,84.983566 
	C436.212006,85.279839 431.367065,85.764626 426.531830,85.681755 
	C425.750824,85.668373 424.146240,82.935326 424.403046,81.792068 
	C425.618652,76.380836 427.348236,71.085052 428.982361,65.018135 
	C429.697113,62.507626 430.324158,60.727108 430.951233,58.946587 
	C430.951233,58.946587 431.000153,58.992981 431.287323,58.878990 
	C432.033173,57.824650 432.491852,56.884296 432.950500,55.943943 
	C432.950500,55.943939 432.884674,55.932205 432.867340,55.904343 
	C433.326996,55.915115 433.804016,55.953754 434.604370,56.372009 
	C433.289764,64.836082 431.651764,72.920547 430.165710,81.330383 
	C433.896332,82.765030 437.475037,83.874298 441.053741,84.983566 
z"/>
<path fill="#FCCC6B" opacity="1.000000" stroke="none" 
	d="
M430.013763,81.005005 
	C431.651764,72.920547 433.289764,64.836082 434.963776,56.349884 
	C437.383392,53.267975 439.766968,50.587799 442.485962,47.877499 
	C441.396667,50.822117 439.922455,53.774567 438.568817,56.781303 
	C437.926086,58.208961 437.513336,59.740166 436.712982,61.870537 
	C435.947754,65.547478 435.889496,68.729935 434.873291,71.569557 
	C433.691589,74.871506 431.670532,77.873070 430.013763,81.005005 
z"/>
<path fill="#FBC162" opacity="1.000000" stroke="none" 
	d="
M471.324402,42.723591 
	C470.510773,41.572781 469.953918,40.106697 469.139465,37.962437 
	C464.386230,38.588135 459.441010,39.239109 454.151489,39.884209 
	C458.113007,37.611969 462.373535,35.251747 466.753113,33.138302 
	C468.012695,32.530472 469.615753,32.634361 471.581177,32.331932 
	C471.581177,35.779800 471.581177,39.094059 471.324402,42.723591 
z"/>
<path fill="#FCCC6B" opacity="1.000000" stroke="none" 
	d="
M446.495972,43.946533 
	C448.287720,47.255856 445.931915,47.585781 443.224304,47.877777 
	C443.957886,46.551613 445.064880,45.280609 446.495972,43.946533 
z"/>
<path fill="#FB6704" opacity="1.000000" stroke="none" 
	d="
M481.982269,126.007652 
	C482.452881,131.479767 482.923492,136.951859 483.669067,142.714844 
	C483.950958,144.708893 483.957916,146.412048 483.653076,148.578613 
	C482.541412,149.681595 481.741516,150.321182 480.941620,150.960770 
	C480.224701,150.951096 479.507751,150.941422 478.433899,150.926117 
	C474.879517,150.086838 471.682098,149.253159 468.243134,148.673950 
	C467.283813,148.902191 466.566010,148.876007 465.342773,148.632126 
	C464.608643,148.179276 464.334351,148.025238 464.014496,147.952332 
	C464.014496,147.952332 463.560394,147.890381 463.134705,147.661743 
	C462.151550,147.276047 461.594086,147.119003 461.036621,146.961945 
	C461.036621,146.961945 461.000000,146.998779 460.965118,146.664932 
	C460.269501,145.928741 459.608734,145.526398 458.947998,145.124069 
	C452.372894,140.320023 445.797791,135.515991 439.000946,130.159210 
	C438.509430,129.404556 438.239685,129.202667 437.969910,129.000763 
	C437.969910,129.000763 437.891876,128.534943 438.173279,128.108643 
	C442.130920,123.712227 442.305298,127.594704 443.285126,130.268906 
	C453.121796,129.468674 463.003265,128.751099 472.863586,127.811539 
	C475.932587,127.519104 478.944305,126.625847 481.982269,126.007652 
z"/>
<path fill="#D56E29" opacity="1.000000" stroke="none" 
	d="
M481.305054,150.975739 
	C481.741516,150.321182 482.541412,149.681595 483.658569,149.004211 
	C483.206726,149.641174 482.437622,150.315933 481.305054,150.975739 
z"/>
<path fill="#350C02" opacity="1.000000" stroke="none" 
	d="
M406.837982,87.133347 
	C407.012085,87.059204 407.202545,87.487862 407.150970,87.716080 
	C406.954224,87.698700 406.809052,87.453094 406.837982,87.133347 
z"/>
<path fill="#FC710C" opacity="1.000000" stroke="none" 
	d="
M481.992310,125.577637 
	C478.944305,126.625847 475.932587,127.519104 472.863586,127.811539 
	C463.003265,128.751099 453.121796,129.468674 443.285126,130.268906 
	C442.305298,127.594704 442.130920,123.712227 438.159119,127.872894 
	C435.244049,124.610413 432.624542,121.157372 430.363403,117.357620 
	C434.235626,117.984138 438.306152,117.529419 440.500946,121.699089 
	C441.003418,122.653687 443.443268,122.588516 445.401123,122.996246 
	C451.623322,123.666145 457.421051,124.621712 463.252411,124.919319 
	C469.367920,125.231415 470.878510,123.407303 470.997559,116.981293 
	C472.422882,116.649132 473.848175,116.316978 475.883911,116.259872 
	C477.992371,116.663101 479.490417,116.791283 480.988434,116.919464 
	C481.326416,119.662186 481.664368,122.404907 481.992310,125.577637 
z"/>
<path fill="#FBA13E" opacity="1.000000" stroke="none" 
	d="
M461.118805,100.028877 
	C461.661591,100.515282 462.204407,101.001686 462.660583,102.005707 
	C456.198792,105.962196 449.816101,104.530411 443.615448,102.195923 
	C440.660187,101.083282 438.320465,100.138313 436.744904,104.215698 
	C435.727814,105.294899 434.964600,106.179626 434.189819,106.673309 
	C434.799957,102.835304 435.421600,99.388359 436.043243,95.941406 
	C439.087250,95.646828 442.131226,95.352257 445.600342,95.469894 
	C447.938110,97.253281 449.686127,99.332695 451.803162,99.824791 
	C454.764191,100.513069 458.000366,100.017784 461.118805,100.028877 
z"/>
<path fill="#FCA941" opacity="1.000000" stroke="none" 
	d="
M461.109863,99.634491 
	C458.000366,100.017784 454.764191,100.513069 451.803162,99.824791 
	C449.686127,99.332695 447.938110,97.253281 446.027802,95.508560 
	C448.015747,94.389984 450.001282,93.644981 451.999115,92.508827 
	C453.607910,90.841187 455.204468,89.564697 456.988190,88.528114 
	C458.483917,92.258720 459.792419,95.749420 461.109863,99.634491 
z"/>
<path fill="#F47C1E" opacity="1.000000" stroke="none" 
	d="
M444.991455,122.992676 
	C443.443268,122.588516 441.003418,122.653687 440.500946,121.699089 
	C438.306152,117.529419 434.235626,117.984138 430.309937,117.003494 
	C428.583862,113.586769 427.269623,110.177460 426.319397,106.440430 
	C429.118011,107.476906 427.393311,112.700699 432.139709,112.141861 
	C432.176147,112.330238 432.174530,112.713951 432.153198,113.072350 
	C433.421295,113.619354 434.710724,113.807961 436.392578,113.998718 
	C438.128906,114.627571 440.287781,114.941116 440.670502,115.937157 
	C442.056793,119.544746 444.497864,118.575386 446.963562,118.346924 
	C446.283600,120.124001 445.637543,121.558342 444.991455,122.992676 
z"/>
<path fill="#FDBD6E" opacity="1.000000" stroke="none" 
	d="
M432.174530,112.713951 
	C432.174530,112.713951 432.176147,112.330238 432.121826,111.748459 
	C431.155518,105.847321 430.243500,100.527969 429.331482,95.208618 
	C431.311096,95.448021 433.290680,95.687424 435.656769,95.934113 
	C435.421600,99.388359 434.799957,102.835304 434.137970,107.069626 
	C433.456635,109.475990 432.815582,111.094971 432.174530,112.713951 
z"/>
<path fill="#FD8E2B" opacity="1.000000" stroke="none" 
	d="
M428.899109,95.143501 
	C430.243500,100.527969 431.155518,105.847321 432.085419,111.560081 
	C427.393311,112.700699 429.118011,107.476906 426.321472,106.033264 
	C425.382202,104.059059 424.692169,102.190002 424.252319,100.263817 
	C423.468536,96.831383 424.374603,94.620911 428.899109,95.143501 
z"/>
<path fill="#D56E29" opacity="1.000000" stroke="none" 
	d="
M459.011017,145.431152 
	C459.608734,145.526398 460.269501,145.928741 460.983154,146.647812 
	C460.382050,146.555771 459.728027,146.146988 459.011017,145.431152 
z"/>
<path fill="#D56E29" opacity="1.000000" stroke="none" 
	d="
M461.042664,147.184814 
	C461.594086,147.119003 462.151550,147.276047 462.905701,147.652939 
	C462.666412,147.889313 462.230438,147.905853 461.471497,147.882309 
	C461.148590,147.842224 461.048737,147.407669 461.042664,147.184814 
z"/>
<path fill="#FC710C" opacity="1.000000" stroke="none" 
	d="
M438.071075,129.232880 
	C438.239685,129.202667 438.509430,129.404556 438.865967,129.849564 
	C438.692566,129.883438 438.432404,129.674210 438.071075,129.232880 
z"/>
<path fill="#FDD27D" opacity="1.000000" stroke="none" 
	d="
M430.165710,81.330383 
	C431.670532,77.873070 433.691589,74.871506 434.873291,71.569557 
	C435.889496,68.729935 435.947754,65.547478 436.710754,62.258083 
	C437.780182,62.316723 438.568390,62.633896 439.628113,63.376450 
	C438.145477,69.127296 439.685730,73.949921 441.709625,79.344337 
	C443.300537,77.952782 444.224731,77.010582 445.282318,76.255157 
	C446.457703,75.415604 447.754730,74.746323 448.998779,74.335632 
	C448.998352,75.111954 448.997955,75.555573 448.946442,76.341080 
	C446.575806,79.375717 444.256287,82.068459 441.936768,84.761200 
	C441.936737,84.761192 441.497070,84.882576 441.275391,84.933075 
	C437.475037,83.874298 433.896332,82.765030 430.165710,81.330383 
z"/>
<path fill="#FBDA77" opacity="1.000000" stroke="none" 
	d="
M448.997559,75.999191 
	C448.997955,75.555573 448.998352,75.111954 449.286316,74.193329 
	C450.053802,72.819122 450.533752,71.919914 451.344727,71.015335 
	C452.117157,71.006752 452.558594,71.003532 453.246216,71.261993 
	C456.107269,71.349953 458.724060,71.012123 461.336426,71.043648 
	C464.677673,71.083969 466.559845,69.885307 467.189087,66.371765 
	C467.527863,64.479965 468.894043,62.772148 469.796661,60.981323 
	C469.513092,65.672058 469.229523,70.362793 468.530457,75.513168 
	C465.460815,75.289963 462.806702,74.607117 460.152557,73.924263 
	C458.888184,74.489899 457.623810,75.055550 455.765930,75.755692 
	C453.114166,75.926521 451.055847,75.962860 448.997559,75.999191 
z"/>
<path fill="#FCCC6B" opacity="1.000000" stroke="none" 
	d="
M448.946442,76.341080 
	C451.055847,75.962860 453.114166,75.926521 455.487671,75.911179 
	C451.468658,78.959602 449.666077,85.661476 442.339600,84.845963 
	C444.256287,82.068459 446.575806,79.375717 448.946442,76.341080 
z"/>
<path fill="#FBC162" opacity="1.000000" stroke="none" 
	d="
M460.243164,74.259468 
	C462.806702,74.607117 465.460815,75.289963 468.469788,75.953552 
	C468.542084,79.370262 468.259521,82.806244 467.935272,86.674393 
	C465.373627,82.935936 462.853699,78.765297 460.243164,74.259468 
z"/>
<path fill="#180101" opacity="1.000000" stroke="none" 
	d="
M460.972992,81.769669 
	C461.001801,83.071648 461.001556,84.138031 461.003113,85.604630 
	C459.080444,86.122826 457.121033,86.496658 455.247559,86.240959 
	C454.423950,86.128548 453.775299,84.734322 453.055847,83.548531 
	C453.721680,82.460854 454.378845,81.746735 455.789917,80.978912 
	C457.809204,80.895714 459.074585,80.866234 460.339935,80.836754 
	C460.654266,80.971313 460.855591,81.203758 460.972992,81.769669 
z"/>
<path fill="#C37D41" opacity="1.000000" stroke="none" 
	d="
M430.602234,58.968796 
	C430.324158,60.727108 429.697113,62.507626 429.009766,64.648216 
	C428.503174,65.004349 428.056854,65.000412 427.275513,64.987137 
	C428.044678,62.982197 429.148926,60.986603 430.602234,58.968796 
z"/>
<path fill="#350C02" opacity="1.000000" stroke="none" 
	d="
M460.283997,80.517982 
	C459.074585,80.866234 457.809204,80.895714 456.068359,80.878372 
	C456.446106,79.730400 457.299347,78.629257 458.458740,77.132988 
	C459.206207,78.428368 459.717133,79.313789 460.283997,80.517982 
z"/>
<path fill="#C37D41" opacity="1.000000" stroke="none" 
	d="
M432.586700,55.896458 
	C432.491852,56.884296 432.033173,57.824650 431.254761,58.870399 
	C431.364319,57.933521 431.793610,56.891243 432.586700,55.896458 
z"/>
<path fill="#D56E29" opacity="1.000000" stroke="none" 
	d="
M464.126678,148.176895 
	C464.334351,148.025238 464.608643,148.179276 464.984924,148.600708 
	C464.834625,148.658463 464.536743,148.529968 464.126678,148.176895 
z"/>
<path fill="#FCFCFC" opacity="1.000000" stroke="none" 
	d="
M583.799194,78.979927 
	C583.795837,68.855476 583.795837,59.229900 583.795837,49.052353 
	C588.155396,49.052353 592.256958,49.041653 596.358398,49.054394 
	C607.999084,49.090549 619.648865,48.864403 631.278137,49.250534 
	C644.339172,49.684200 650.766968,59.177628 646.730774,71.587166 
	C644.660156,77.953247 639.597961,80.794151 633.380981,80.945152 
	C617.757507,81.324623 602.123535,81.306221 586.493713,81.313477 
	C585.596985,81.313896 584.699646,80.117958 583.799194,78.979927 
z"/>
<path fill="#797979" opacity="1.000000" stroke="none" 
	d="
M557.209351,87.887207 
	C557.132263,87.603394 557.339600,87.335625 557.809143,87.041092 
	C557.878845,87.310631 557.686279,87.606941 557.209351,87.887207 
z"/>
<path fill="#FD6D08" opacity="1.000000" stroke="none" 
	d="
M517.419312,89.039856 
	C516.889893,87.723900 516.099121,85.852203 516.696167,85.133682 
	C522.361511,78.315582 521.410400,69.276466 524.631897,61.632648 
	C525.274414,60.108181 522.653015,57.208138 521.250549,54.361641 
	C522.498291,53.267567 524.060730,51.897572 525.813477,50.253288 
	C526.835083,50.848389 527.666382,51.717773 528.794067,53.109940 
	C529.725403,54.089268 530.360229,54.545803 530.995117,55.002350 
	C530.995117,55.002354 531.000000,55.000137 530.998779,55.002449 
	C533.939514,61.533371 536.975220,68.021759 539.797974,74.601494 
	C542.830200,81.669464 540.024536,85.597473 532.606873,86.117058 
	C527.628540,86.465775 522.733887,88.009880 517.419312,89.039856 
z"/>
<path fill="#3C0B03" opacity="1.000000" stroke="none" 
	d="
M553.502197,88.047058 
	C548.966736,88.416115 543.975037,88.793930 538.976196,88.968979 
	C535.213501,89.100746 531.441772,88.972511 527.180115,88.908554 
	C531.694519,88.546715 536.699341,88.143036 541.712341,87.956512 
	C545.483765,87.816185 549.265686,87.954445 553.502197,88.047058 
z"/>
<path fill="#E26E24" opacity="1.000000" stroke="none" 
	d="
M530.994019,54.679939 
	C530.360229,54.545803 529.725403,54.089268 529.052490,53.312798 
	C529.440430,53.003250 529.866394,53.013634 530.610291,53.047886 
	C530.949768,53.500347 530.971313,53.928940 530.994019,54.679939 
z"/>
<path fill="#3C0B03" opacity="1.000000" stroke="none" 
	d="
M491.431549,150.723785 
	C491.265198,150.330200 491.322998,149.700699 491.580750,148.815079 
	C491.739044,149.201935 491.697357,149.844879 491.431549,150.723785 
z"/>
<path fill="#FD8E2B" opacity="1.000000" stroke="none" 
	d="
M432.153198,113.072350 
	C432.815582,111.094971 433.456635,109.475990 434.149536,107.460686 
	C434.964600,106.179626 435.727814,105.294899 436.983459,104.485947 
	C442.750305,106.242973 447.971893,108.120766 453.312744,109.554359 
	C459.613647,111.245651 462.923523,110.061401 465.277374,106.131699 
	C466.348724,107.219719 467.166321,108.127357 467.983917,109.034988 
	C467.983917,109.034996 468.000397,109.507988 468.026489,109.742996 
	C468.359528,111.402908 468.666504,112.827805 468.680695,114.581429 
	C462.002106,114.573174 455.610657,114.314659 449.233795,113.854103 
	C447.169556,113.705017 445.048920,113.265884 443.131927,112.508980 
	C441.748627,111.962799 440.659576,110.671402 439.231171,109.548843 
	C437.903015,111.377113 436.951569,112.686836 436.000122,113.996552 
	C434.710724,113.807961 433.421295,113.619354 432.153198,113.072350 
z"/>
<path fill="#FC8721" opacity="1.000000" stroke="none" 
	d="
M436.392578,113.998718 
	C436.951569,112.686836 437.903015,111.377113 439.231171,109.548843 
	C440.659576,110.671402 441.748627,111.962799 443.131927,112.508980 
	C445.048920,113.265884 447.169556,113.705017 449.233795,113.854103 
	C455.610657,114.314659 462.002106,114.573174 468.733765,114.945953 
	C469.389740,115.438477 469.699829,115.895203 469.785400,116.931389 
	C462.089783,119.965919 454.605316,121.806259 446.997437,118.004189 
	C444.497864,118.575386 442.056793,119.544746 440.670502,115.937157 
	C440.287781,114.941116 438.128906,114.627571 436.392578,113.998718 
z"/>
<path fill="#FE7A14" opacity="1.000000" stroke="none" 
	d="
M446.963562,118.346924 
	C454.605316,121.806259 462.089783,119.965919 469.810242,117.220421 
	C470.059662,116.929993 470.528442,116.959099 470.763000,116.970200 
	C470.878510,123.407303 469.367920,125.231415 463.252411,124.919319 
	C457.421051,124.621712 451.623322,123.666145 445.401123,122.996262 
	C445.637543,121.558342 446.283600,120.124001 446.963562,118.346924 
z"/>
<path fill="#FD8E2B" opacity="1.000000" stroke="none" 
	d="
M480.988525,116.477875 
	C479.490417,116.791283 477.992371,116.663101 476.254059,116.247437 
	C476.333740,114.031296 476.833984,112.112740 476.942444,110.172279 
	C477.411102,101.789909 477.765106,93.401115 478.160797,85.014664 
	C478.589386,84.983826 479.017975,84.952988 479.446533,84.922150 
	C479.960571,95.293526 480.474609,105.664909 480.988525,116.477875 
z"/>
<path fill="#FCE686" opacity="1.000000" stroke="none" 
	d="
M469.854980,60.613926 
	C468.894043,62.772148 467.527863,64.479965 467.189087,66.371765 
	C466.559845,69.885307 464.677673,71.083969 461.336426,71.043648 
	C458.724060,71.012123 456.107269,71.349953 453.393677,70.957962 
	C455.779022,68.573486 458.352692,66.862083 460.711426,64.893120 
	C461.995056,63.821556 462.913574,62.312584 464.105743,60.742569 
	C464.478119,59.990780 464.741486,59.497303 465.348083,58.971207 
	C466.784485,58.625282 467.877686,58.311974 468.970886,57.998665 
	C468.970886,57.998665 469.391846,58.010056 469.601776,58.016983 
	C469.845581,58.764790 469.879425,59.505661 469.854980,60.613926 
z"/>
<path fill="#FD9C37" opacity="1.000000" stroke="none" 
	d="
M465.023621,105.951309 
	C462.923523,110.061401 459.613647,111.245651 453.312744,109.554359 
	C447.971893,108.120766 442.750305,106.242973 437.237366,104.291473 
	C438.320465,100.138313 440.660187,101.083282 443.615448,102.195923 
	C449.816101,104.530411 456.198792,105.962196 462.794678,102.247375 
	C463.015411,101.971436 463.491241,101.998268 463.834991,102.232529 
	C464.449432,102.655190 464.720123,102.843582 464.990845,103.031967 
	C464.990845,103.031960 464.984314,103.510345 464.987549,104.076836 
	C465.001740,105.079323 465.012695,105.515312 465.023621,105.951309 
z"/>
<path fill="#D56E29" opacity="1.000000" stroke="none" 
	d="
M465.277405,106.131699 
	C465.012695,105.515312 465.001740,105.079323 465.000214,104.315720 
	C465.984894,105.440643 466.960175,106.893173 467.959717,108.690353 
	C467.166321,108.127357 466.348724,107.219719 465.277405,106.131699 
z"/>
<path fill="#D56E29" opacity="1.000000" stroke="none" 
	d="
M464.885925,102.803192 
	C464.720123,102.843582 464.449432,102.655190 464.073212,102.237991 
	C464.238800,102.197586 464.509888,102.385994 464.885925,102.803192 
z"/>
<path fill="#FEB05D" opacity="1.000000" stroke="none" 
	d="
M511.315674,48.985245 
	C510.824951,47.404881 510.682190,45.894920 511.125763,44.180664 
	C512.151978,43.969570 512.591919,43.962776 513.031799,43.955986 
	C514.920715,45.441040 516.809631,46.926090 518.745483,48.944229 
	C518.512695,49.729378 518.232971,49.981438 517.953247,50.233505 
	C517.222412,50.179596 516.491516,50.125683 515.395264,50.100716 
	C513.907837,49.771664 512.785706,49.413658 511.315674,48.985245 
z"/>
<path fill="#FD8E2B" opacity="1.000000" stroke="none" 
	d="
M518.034912,50.546101 
	C518.232971,49.981438 518.512695,49.729378 518.928101,49.229523 
	C519.615173,49.708885 520.166626,50.436047 520.718018,51.163208 
	C519.850891,51.061710 518.983704,50.960209 518.034912,50.546101 
z"/>
<path fill="#F2933A" opacity="1.000000" stroke="none" 
	d="
M512.993835,43.669140 
	C512.591919,43.962776 512.151978,43.969570 511.383423,43.982513 
	C511.040131,43.817890 511.025482,43.647121 511.011597,43.218918 
	C511.660187,43.101753 512.308044,43.242023 512.993835,43.669140 
z"/>
<path fill="#FDED93" opacity="1.000000" stroke="none" 
	d="
M463.996765,61.000866 
	C462.913574,62.312584 461.995056,63.821556 460.711426,64.893120 
	C458.352692,66.862083 455.779022,68.573486 453.147461,70.696274 
	C452.558594,71.003532 452.117157,71.006752 450.973267,71.003838 
	C444.459778,68.891624 444.121613,68.213020 445.858765,62.821220 
	C446.363495,61.254658 446.626312,59.610157 447.306580,57.842644 
	C453.791382,47.171650 455.057098,48.875240 464.122314,49.228634 
	C466.066895,49.304443 467.996796,49.756481 469.933472,50.035206 
	C469.619019,52.413548 469.304535,54.791885 468.980469,57.584442 
	C467.877686,58.311974 466.784485,58.625282 465.345215,58.582848 
	C463.897858,51.969460 461.081970,50.651833 455.957520,54.028469 
	C454.717590,54.845482 452.998871,55.519333 452.463989,56.696796 
	C451.464142,58.897640 451.169983,61.419037 450.582214,63.807053 
	C452.899323,63.941456 455.317169,64.547607 457.505798,64.080193 
	C459.784698,63.593498 461.842346,62.070648 463.996765,61.000866 
z"/>
<path fill="#FDDF84" opacity="1.000000" stroke="none" 
	d="
M447.000000,58.001373 
	C446.626312,59.610157 446.363495,61.254658 445.858765,62.821220 
	C444.121613,68.213020 444.459778,68.891624 450.642212,71.009201 
	C450.533752,71.919914 450.053802,72.819122 449.286316,73.860626 
	C447.754730,74.746323 446.457703,75.415604 445.282318,76.255157 
	C444.224731,77.010582 443.300537,77.952782 441.709625,79.344337 
	C439.685730,73.949921 438.145477,69.127296 439.947388,63.401894 
	C440.134521,59.972450 439.114899,56.465572 443.757080,55.321522 
	C445.172089,56.373013 446.086060,57.187191 447.000000,58.001373 
z"/>
<path fill="#FCE686" opacity="1.000000" stroke="none" 
	d="
M447.306580,57.842636 
	C446.086060,57.187191 445.172089,56.373013 444.125397,55.278427 
	C444.687347,53.488480 445.001099,51.507275 446.159363,50.571735 
	C448.292816,48.848557 451.080170,47.956051 453.312164,46.329262 
	C457.716583,43.119011 462.467987,44.637585 467.043396,45.235439 
	C468.080688,45.370979 468.806824,47.887779 469.804810,49.671844 
	C467.996796,49.756481 466.066895,49.304443 464.122314,49.228634 
	C455.057098,48.875240 453.791382,47.171650 447.306580,57.842636 
z"/>
<path fill="#FFF69F" opacity="1.000000" stroke="none" 
	d="
M464.105713,60.742554 
	C461.842346,62.070648 459.784698,63.593498 457.505798,64.080193 
	C455.317169,64.547607 452.899323,63.941456 450.582214,63.807053 
	C451.169983,61.419037 451.464142,58.897640 452.463989,56.696796 
	C452.998871,55.519333 454.717590,54.845482 455.957520,54.028469 
	C461.081970,50.651833 463.897858,51.969460 465.002014,58.615463 
	C464.741486,59.497303 464.478119,59.990780 464.105713,60.742554 
z"/>
</svg>